<?xml version="1.0" encoding="iso-8859-1"?>
<svg height="40px" width="40px" viewBox="0 0 40 40"  version="1.1" id="Layer_1" xmlns="http://www.w3.org/2000/svg" xmlns:xlink="http://www.w3.org/1999/xlink" xml:space="preserve">
  <g transform="translate(0, 2) scale(0.07)">
	<path fill="#000000" d="M256 23C127.4 23 23 127.4 23 256s104.4 233 233 233 233-104.4 233-233S384.6 23 256 23zm0 18c118.8 0 215 96.2 215 215s-96.2 215-215 215S41 374.8 41 256 137.2 41 256 41z"/>
	<path fill="#000000" d="M444 273.5c-32.6 72.6-111.1 153.4-219 156 8.1 9.1 49.8 18.1 76.5 9 93.4-31.8 129.1-119.3 142.5-165z"/>
  </g>

  <g transform="translate(8, 8) scale(0.09)">
	<path fill="#000000" d="M102.759,43.526c-22.615-6.336-24.948-8.706-31.206-31.7C69.754,5.21,63.741,0.59,56.929,0.59S44.103,5.21,42.304,11.825
	  c-6.259,22.996-8.591,25.366-31.205,31.701C4.564,45.357,0,51.407,0,58.239s4.564,12.883,11.099,14.712
	  c22.614,6.335,24.947,8.706,31.205,31.701c1.799,6.615,7.814,11.235,14.625,11.235s12.825-4.62,14.624-11.235
	  c6.258-22.995,8.591-25.365,31.206-31.701c6.535-1.831,11.099-7.881,11.099-14.713S109.294,45.356,102.759,43.526z M56.929,98.73
	  c-7.332-26.164-14.214-33.034-40.26-40.491c26.046-7.455,32.928-14.325,40.26-40.491C64.26,43.913,71.142,50.784,97.19,58.239
	  C71.143,65.694,64.26,72.563,56.929,98.73z"/>
  </g>
</svg>