<?xml version="1.0" encoding="UTF-8"?>
<svg version="1.1" xmlns="http://www.w3.org/2000/svg" width="480" height="720">
<path d="M0 0 C0.33 -0 0.33 -0 2.02 -0.02 C4.26 -0.03 6.5 -0.02 8.74 -0.01 C10.37 -0.02 11.99 -0.02 13.61 -0.03 C18.07 -0.05 22.52 -0.04 26.98 -0.04 C31.79 -0.04 36.59 -0.05 41.4 -0.06 C50.82 -0.08 60.24 -0.09 69.65 -0.09 C77.31 -0.08 84.96 -0.09 92.61 -0.1 C94.81 -0.1 97.02 -0.1 99.22 -0.1 C99.77 -0.1 99.77 -0.1 102.54 -0.11 C123.28 -0.12 144.03 -0.12 164.77 -0.12 C183.75 -0.11 202.74 -0.13 221.72 -0.17 C241.21 -0.2 260.69 -0.21 280.17 -0.21 C291.12 -0.21 302.06 -0.21 313 -0.24 C322.32 -0.26 331.63 -0.26 340.95 -0.24 C345.7 -0.23 350.45 -0.23 355.21 -0.25 C359.56 -0.27 363.91 -0.27 368.26 -0.24 C369.83 -0.24 371.41 -0.24 372.98 -0.26 C386.23 -0.36 386.23 -0.36 390.18 2.8 C392.76 6 393.39 7.45 393.39 11.46 C393.4 12.32 393.4 13.18 393.4 14.07 C393.4 15.02 393.4 15.97 393.4 16.95 C393.4 17.96 393.41 18.97 393.41 20.01 C393.42 23.44 393.42 26.86 393.42 30.29 C393.42 32.75 393.43 35.21 393.43 37.68 C393.44 43.77 393.45 49.85 393.45 55.94 C393.46 63.23 393.47 70.51 393.48 77.8 C393.5 95.42 393.52 113.03 393.53 130.65 C393.54 136.48 393.54 142.32 393.55 148.15 C393.57 179.15 393.59 210.15 393.61 241.15 C393.61 248.33 393.61 255.51 393.61 262.7 C393.61 263.59 393.61 264.48 393.62 265.4 C393.63 294.35 393.66 323.3 393.7 352.25 C393.74 382 393.77 411.74 393.77 441.49 C393.78 445.69 393.78 449.89 393.78 454.09 C393.78 454.91 393.78 455.74 393.78 456.59 C393.78 469.91 393.8 483.22 393.83 496.54 C393.85 509.92 393.86 523.29 393.85 536.67 C393.84 544.62 393.85 552.58 393.88 560.53 C393.9 566.46 393.89 572.39 393.88 578.32 C393.87 580.73 393.88 583.13 393.89 585.54 C393.91 588.8 393.9 592.05 393.88 595.31 C393.89 596.25 393.91 597.2 393.92 598.17 C393.86 602.55 393.65 605.47 390.85 608.95 C386.99 612.58 385.1 612.51 379.88 612.52 C379.22 612.52 378.55 612.53 377.86 612.53 C375.61 612.54 373.36 612.54 371.11 612.54 C369.48 612.54 367.86 612.55 366.24 612.55 C361.76 612.56 357.29 612.57 352.81 612.57 C347.99 612.58 343.17 612.59 338.35 612.6 C326.7 612.63 315.05 612.64 303.39 612.65 C300.11 612.66 296.82 612.66 293.53 612.66 C273.12 612.69 252.71 612.71 232.3 612.72 C227.57 612.73 222.84 612.73 218.11 612.73 C216.93 612.73 215.76 612.73 214.55 612.74 C195.49 612.75 176.44 612.78 157.39 612.82 C137.84 612.87 118.29 612.89 98.75 612.89 C87.77 612.9 76.78 612.91 65.8 612.94 C56.45 612.97 47.1 612.98 37.75 612.97 C32.98 612.96 28.21 612.97 23.44 612.99 C19.07 613.01 14.7 613.01 10.34 613 C8.75 612.99 7.17 613 5.59 613.01 C3.44 613.03 1.3 613.02 -0.85 613 C-1.45 613 -1.45 613 -4.47 613.01 C-8.88 612.17 -10.55 610.51 -13.74 607.38 C-14.88 605.1 -14.86 603.85 -14.86 601.31 C-14.87 600.45 -14.87 599.59 -14.87 598.71 C-14.87 597.76 -14.87 596.81 -14.87 595.83 C-14.87 595.32 -14.87 595.32 -14.87 592.77 C-14.88 589.35 -14.88 585.93 -14.88 582.51 C-14.88 580.05 -14.88 577.59 -14.89 575.13 C-14.89 569.05 -14.9 562.97 -14.9 556.89 C-14.9 549.62 -14.9 542.34 -14.91 535.06 C-14.93 517.47 -14.93 499.88 -14.94 482.29 C-14.94 473.97 -14.94 465.65 -14.95 457.34 C-14.96 428.88 -14.97 400.42 -14.97 371.96 C-14.97 370.17 -14.97 368.39 -14.97 366.6 C-14.97 364.81 -14.97 363.02 -14.98 361.22 C-14.98 357.63 -14.98 354.04 -14.98 350.44 C-14.98 349.55 -14.98 348.66 -14.98 347.74 C-14.98 318.83 -15 289.93 -15.02 261.02 C-15.04 230.47 -15.06 199.93 -15.06 169.38 C-15.06 166.03 -15.06 162.68 -15.06 159.33 C-15.06 158.51 -15.06 157.68 -15.06 156.83 C-15.06 143.53 -15.07 130.24 -15.09 116.94 C-15.1 103.58 -15.1 90.23 -15.1 76.87 C-15.09 68.93 -15.1 60.98 -15.11 53.04 C-15.12 47.12 -15.12 41.2 -15.11 35.28 C-15.1 32.88 -15.11 30.48 -15.12 28.07 C-15.13 24.82 -15.12 21.57 -15.11 18.32 C-15.12 17.37 -15.12 16.43 -15.13 15.46 C-15.09 10.65 -15.02 7.17 -11.74 3.38 C-7.86 0.32 -4.87 0.01 0 0 Z M160.26 29.38 C158.41 29.64 156.56 29.89 154.7 30.13 C149.01 31.09 143.54 32.63 138.01 34.26 C137.17 34.5 136.33 34.75 135.47 35 C130.71 36.44 126.38 38.19 121.98 40.5 C119.96 41.54 117.9 42.32 115.76 43.07 C98.98 49.69 83.95 60.5 70.95 72.85 C68.67 75 66.34 77.05 63.95 79.07 C59.98 82.52 56.61 86.34 53.26 90.38 C52.96 90.74 52.96 90.74 51.4 92.55 C37.3 109.42 26.88 129.5 20.26 150.38 C19.87 151.58 19.48 152.79 19.08 154.02 C11.58 177.66 11.95 201.63 11.96 226.18 C11.96 229.66 11.96 233.13 11.95 236.61 C11.94 244.8 11.94 252.99 11.95 261.18 C11.95 269.61 11.94 278.05 11.92 286.49 C11.9 293.76 11.9 301.04 11.9 308.31 C11.9 312.65 11.9 316.98 11.89 321.31 C11.87 325.37 11.87 329.43 11.89 333.49 C11.89 334.97 11.89 336.46 11.88 337.95 C11.87 339.98 11.88 342.01 11.89 344.04 C11.89 345.17 11.89 346.31 11.89 347.48 C12.32 350.83 12.9 352.01 15.26 354.38 C17.87 354.88 17.87 354.88 21.07 354.88 C22.29 354.88 23.5 354.89 24.76 354.9 C26.12 354.89 27.48 354.88 28.84 354.86 C30.27 354.87 31.71 354.87 33.15 354.87 C37.11 354.88 41.07 354.87 45.03 354.85 C49.3 354.83 53.57 354.84 57.84 354.84 C65.23 354.84 72.63 354.83 80.03 354.81 C90.72 354.77 101.42 354.76 112.12 354.76 C129.47 354.75 146.82 354.72 164.17 354.68 C181.03 354.65 197.89 354.62 214.75 354.6 C215.79 354.6 216.82 354.6 217.89 354.6 C223.11 354.59 228.32 354.59 233.53 354.58 C276.77 354.54 320.02 354.47 363.26 354.38 C363.26 353.72 363.26 353.06 363.26 352.38 C364.25 352.05 365.24 351.72 366.26 351.38 C366.31 330.7 366.35 310.02 366.37 289.34 C366.38 279.74 366.39 270.13 366.41 260.53 C366.43 252.15 366.45 243.77 366.45 235.39 C366.45 230.96 366.46 226.53 366.48 222.1 C366.49 217.92 366.49 213.73 366.49 209.55 C366.49 208.03 366.49 206.51 366.5 204.99 C366.57 190.6 365.72 176.08 361.95 162.13 C361.73 161.3 361.52 160.47 361.3 159.62 C359.36 152.37 357 145.36 354.26 138.38 C353.9 137.41 353.53 136.43 353.15 135.42 C346.6 118.67 336.62 102.76 324.36 89.63 C322.52 87.66 320.8 85.64 319.08 83.57 C311.61 75 302.76 66.65 293.26 60.38 C292.73 60.03 292.19 59.67 291.63 59.3 C273.91 47.66 254.77 37.99 234.26 32.38 C233.29 32.11 232.31 31.83 231.3 31.54 C216.6 27.74 201.37 27.21 186.26 27.13 C185.72 27.13 185.72 27.13 182.94 27.11 C175.22 27.13 167.87 28.08 160.26 29.38 Z M15.26 390.38 C15.26 399.95 15.26 409.52 15.26 419.38 C17.24 419.38 19.22 419.38 21.26 419.38 C21.43 417.9 21.43 417.9 22.26 410.38 C23.25 410.38 24.24 410.38 25.26 410.38 C26.62 412.35 26.62 412.35 28.01 414.88 C29.57 417.38 29.57 417.38 31.26 419.38 C35.14 419.95 35.14 419.95 38.26 419.38 C36.94 415.81 35.37 412.74 33.26 409.57 C32.75 408.78 32.23 407.99 31.7 407.18 C31.23 406.58 30.75 405.99 30.26 405.38 C29.6 405.38 28.94 405.38 28.26 405.38 C30.55 401.07 33.55 397.71 36.84 394.15 C38.26 392.38 38.26 392.38 38.26 390.38 C35.07 390.04 35.07 390.04 31.26 390.38 C28.61 392.79 28.61 392.79 26.33 395.88 C25.55 396.9 24.78 397.92 23.99 398.98 C23.42 399.77 22.85 400.56 22.26 401.38 C21.93 397.75 21.6 394.12 21.26 390.38 C19.28 390.38 17.3 390.38 15.26 390.38 Z M40.45 402.01 C38.59 405.73 38.59 409.31 39.26 413.38 C41.06 416.25 42.25 417.87 45.26 419.38 C49.9 419.94 53.25 420.02 57.26 417.51 C60.72 413.83 60.73 410.77 60.67 405.87 C60.26 403.38 60.26 403.38 57.7 400.32 C50.64 396.34 46.38 396.7 40.45 402.01 Z M64.58 400.07 C63.26 402.38 63.26 402.38 63.33 404.95 C64.38 407.69 64.83 408.74 67.26 410.38 C69.92 411.22 72.54 411.8 75.26 412.38 C75.26 413.04 75.26 413.7 75.26 414.38 C73.6 414.43 71.93 414.42 70.26 414.38 C69.93 414.05 69.6 413.72 69.26 413.38 C67.26 413.34 65.26 413.34 63.26 413.38 C65.01 418.26 65.01 418.26 67.26 419.38 C76.79 420.31 76.79 420.31 80.95 417.7 C82.52 414.93 82.83 413.51 82.26 410.38 C80.62 408.23 79.67 407.47 77 406.87 C76.2 406.81 75.4 406.76 74.58 406.7 C73.77 406.63 72.96 406.56 72.13 406.5 C71.51 406.46 70.9 406.42 70.26 406.38 C70.26 405.06 70.26 403.74 70.26 402.38 C71.13 402.71 72 403.04 72.89 403.38 C76.22 404.37 78.82 404.55 82.26 404.38 C80.89 401.22 80.27 400.39 77.26 398.38 C72.63 397.72 68.59 397.55 64.58 400.07 Z M16.26 433.38 C15.76 434.99 15.26 436.59 14.76 438.2 C14.49 439.09 14.21 439.98 13.92 440.9 C13.26 443.38 13.26 443.38 13.26 446.38 C13.92 446.38 14.58 446.38 15.26 446.38 C15.26 445.39 15.26 444.4 15.26 443.38 C16.91 443.38 18.56 443.38 20.26 443.38 C20.59 444.37 20.92 445.36 21.26 446.38 C21.92 446.38 22.58 446.38 23.26 446.38 C22.95 444.78 22.64 443.17 22.33 441.57 C22.15 440.68 21.98 439.78 21.8 438.86 C21.26 436.38 21.26 436.38 20.26 433.38 C18.94 433.38 17.62 433.38 16.26 433.38 Z M59.26 433.38 C59.26 437.67 59.26 441.96 59.26 446.38 C63.55 446.38 67.84 446.38 72.26 446.38 C72.59 445.06 72.92 443.74 73.26 442.38 C73.7 443.04 74.13 443.7 74.58 444.38 C74.85 444.71 74.85 444.71 76.26 446.38 C77.25 446.38 78.24 446.38 79.26 446.38 C79.26 442.09 79.26 437.8 79.26 433.38 C78.27 433.38 77.28 433.38 76.26 433.38 C75.93 435.03 75.6 436.68 75.26 438.38 C74.6 436.73 73.94 435.08 73.26 433.38 C72.86 433.48 72.86 433.48 70.83 433.95 C69.98 434.09 69.14 434.23 68.26 434.38 C67.93 434.05 67.6 433.72 67.26 433.38 C64.59 433.24 61.94 433.34 59.26 433.38 Z M127.26 433.38 C124.8 437.08 124.87 439.02 125.26 443.38 C126.33 445.32 126.33 445.32 128.26 446.38 C131.95 446.57 131.95 446.57 135.26 446.38 C135.26 444.07 135.26 441.76 135.26 439.38 C133.61 439.38 131.96 439.38 130.26 439.38 C130.26 440.04 130.26 440.7 130.26 441.38 C131.25 441.38 132.24 441.38 133.26 441.38 C133.26 442.37 133.26 443.36 133.26 444.38 C131.61 444.38 129.96 444.38 128.26 444.38 C128.26 441.74 128.26 439.1 128.26 436.38 C129.58 436.38 130.9 436.38 132.26 436.38 C132.59 437.04 132.92 437.7 133.26 438.38 C133.92 438.38 134.58 438.38 135.26 438.38 C134.39 434.51 134.39 434.51 133.26 433.38 C130.33 433.13 130.33 433.13 127.26 433.38 Z M149.26 433.38 C148.93 435.03 148.6 436.68 148.26 438.38 C151.89 441.38 151.89 441.38 155.26 441.38 C155.26 442.37 155.26 443.36 155.26 444.38 C153.61 444.38 151.96 444.38 150.26 444.38 C150.26 443.72 150.26 443.06 150.26 442.38 C149.6 442.38 148.94 442.38 148.26 442.38 C148.59 443.7 148.92 445.02 149.26 446.38 C151.6 446.43 153.93 446.42 156.26 446.38 C157.26 445.38 157.26 445.38 157.45 442.95 C157.26 440.38 157.26 440.38 155.26 438.38 C152.64 438.26 152.64 438.26 150.26 438.38 C150.26 437.39 150.26 436.4 150.26 435.38 C151.91 435.38 153.56 435.38 155.26 435.38 C155.26 436.04 155.26 436.7 155.26 437.38 C156.25 437.38 157.24 437.38 158.26 437.38 C157.6 436.06 156.94 434.74 156.26 433.38 C153.95 433.38 151.64 433.38 149.26 433.38 Z M170.26 435.38 C169.8 442.69 169.8 442.69 172.26 446.38 C175.26 446.76 175.26 446.76 178.26 446.38 C180.72 442.7 180.58 440.74 180.26 436.38 C179.6 435.39 178.94 434.4 178.26 433.38 C172.83 432.82 172.83 432.82 170.26 435.38 Z M12.26 560.38 C11.81 564.01 11.94 567.67 11.95 571.32 C11.94 572.34 11.92 573.35 11.9 574.4 C11.9 575.37 11.9 576.34 11.9 577.35 C11.9 578.24 11.89 579.13 11.89 580.05 C12.26 582.38 12.26 582.38 13.36 584 C16.24 586.09 18.64 585.76 22.17 585.76 C22.53 585.77 22.53 585.77 24.31 585.78 C26.69 585.79 29.06 585.78 31.44 585.77 C33.14 585.78 34.84 585.78 36.54 585.79 C41.16 585.8 45.78 585.8 50.4 585.79 C55.23 585.78 60.07 585.79 64.9 585.79 C73.01 585.8 81.12 585.79 89.24 585.77 C98.63 585.76 108.01 585.76 117.4 585.78 C125.46 585.79 133.51 585.8 141.56 585.79 C146.37 585.78 151.19 585.78 156 585.79 C160.52 585.8 165.05 585.79 169.57 585.78 C171.23 585.77 172.9 585.77 174.56 585.78 C176.83 585.79 179.09 585.78 181.36 585.76 C182.62 585.76 183.89 585.76 185.2 585.76 C188.26 585.38 188.26 585.38 190.17 584 C191.66 581.79 191.64 580.25 191.63 577.6 C191.63 576.68 191.63 575.75 191.63 574.8 C191.61 573.84 191.59 572.88 191.58 571.88 C191.58 570.92 191.58 569.96 191.59 568.97 C191.53 561.78 191.53 561.78 189.26 558.38 C186.29 558.01 186.29 558.01 182.39 558.01 C182.04 558.01 182.04 558.01 180.23 558 C177.82 557.99 175.41 558 173 558.01 C171.28 558.01 169.56 558 167.84 558 C163.16 557.99 158.47 558 153.79 558.01 C148.9 558.02 144 558.02 139.11 558.02 C130.89 558.02 122.67 558.03 114.45 558.05 C104.94 558.07 95.43 558.07 85.92 558.07 C76.78 558.06 67.64 558.07 58.51 558.08 C54.61 558.08 50.72 558.08 46.82 558.08 C42.24 558.08 37.66 558.09 33.07 558.1 C31.39 558.11 29.7 558.11 28.02 558.1 C25.72 558.1 23.43 558.11 21.13 558.12 C19.85 558.12 18.56 558.13 17.24 558.13 C14.26 558.38 14.26 558.38 12.26 560.38 Z M291.26 558.38 C291.26 562.01 291.26 565.64 291.26 569.38 C294.14 569.51 294.14 569.51 297.26 569.38 C299.26 567.38 299.26 567.38 299.49 565.47 C299.38 559.49 299.38 559.49 298.26 558.38 C295.93 558.34 293.6 558.34 291.26 558.38 Z M301.26 558.38 C301.26 562.01 301.26 565.64 301.26 569.38 C302.25 569.38 303.24 569.38 304.26 569.38 C304.26 567.73 304.26 566.08 304.26 564.38 C304.92 564.38 305.58 564.38 306.26 564.38 C306.59 566.03 306.92 567.68 307.26 569.38 C307.67 569.29 307.67 569.29 309.7 568.82 C310.12 568.75 310.12 568.75 312.26 568.38 C312.59 568.71 312.92 569.04 313.26 569.38 C316.64 569.32 316.64 569.32 320.26 568.38 C322.2 565.32 322.2 565.32 323.26 562.38 C324.25 564.69 325.24 567 326.26 569.38 C326.92 569.38 327.58 569.38 328.26 569.38 C328.26 568.72 328.26 568.06 328.26 567.38 C328.92 567.38 329.58 567.38 330.26 567.38 C330.26 568.04 330.26 568.7 330.26 569.38 C331.25 569.38 332.24 569.38 333.26 569.38 C334.76 566.01 335.26 564.18 335.26 560.38 C335.92 560.38 336.58 560.38 337.26 560.38 C337.53 560.98 337.8 561.58 338.08 562.2 C339.25 564.36 340.46 565.74 342.26 567.38 C341.44 567.05 341.44 567.05 337.26 565.38 C337.26 566.7 337.26 568.02 337.26 569.38 C339.24 569.38 341.22 569.38 343.26 569.38 C344.08 567.2 344.08 567.2 344.26 564.38 C341.83 561.57 341.83 561.57 339.26 559.38 C340.25 559.38 341.24 559.38 342.26 559.38 C342.26 560.04 342.26 560.7 342.26 561.38 C342.92 561.38 343.58 561.38 344.26 561.38 C344.26 560.39 344.26 559.4 344.26 558.38 C339.74 558.33 335.22 558.3 330.7 558.27 C329.16 558.26 327.63 558.25 326.09 558.23 C323.88 558.21 321.67 558.2 319.46 558.19 C319.11 558.18 319.11 558.18 317.37 558.16 C315.67 558.16 313.96 558.26 312.26 558.38 C310.26 560.38 310.26 560.38 310.14 563.51 C310.16 563.98 310.16 563.98 310.26 566.38 C309.6 566.38 308.94 566.38 308.26 566.38 C308.59 563.74 308.92 561.1 309.26 558.38 C306.62 558.38 303.98 558.38 301.26 558.38 Z M290.45 574.45 C288.6 577.47 288.89 579.93 289.26 583.38 C292.53 585.56 293.48 585.75 297.26 585.38 C299.58 584.38 299.58 584.38 301.26 583.38 C301.92 584.04 302.58 584.7 303.26 585.38 C306.07 585.74 307.65 585.77 310.08 584.26 C311.82 581.51 311.66 579.56 311.26 576.38 C310.08 574.51 310.08 574.51 308.26 573.38 C305.7 573.07 305.7 573.07 303.26 573.38 C302.6 574.04 301.94 574.7 301.26 575.38 C300.99 575.22 300.99 575.22 299.58 574.38 C296.24 572.94 293.66 572.56 290.45 574.45 Z M322.26 573.38 C321.27 575.36 320.28 577.34 319.26 579.38 C318.65 578.56 318.03 577.73 317.39 576.88 C317.04 576.47 317.04 576.47 315.26 574.38 C314.6 574.38 313.94 574.38 313.26 574.38 C312.93 578.01 312.6 581.64 312.26 585.38 C313.58 585.05 314.9 584.72 316.26 584.38 C316.26 583.39 316.26 582.4 316.26 581.38 C316.59 582.7 316.92 584.02 317.26 585.38 C321.55 585.38 325.84 585.38 330.26 585.38 C329.93 583.73 329.6 582.08 329.26 580.38 C329.58 580.31 329.58 580.31 331.2 579.95 C333.26 579.38 333.26 579.38 334.26 578.38 C334.26 576.73 334.26 575.08 334.26 573.38 C330.3 573.38 326.34 573.38 322.26 573.38 Z M351.26 573.38 C351.59 575.03 351.92 576.68 352.26 578.38 C351.48 577.72 350.7 577.06 349.89 576.38 C347.26 574.38 347.26 574.38 345.26 574.38 C345.26 577.35 345.26 580.32 345.26 583.38 C344.6 583.38 343.94 583.38 343.26 583.38 C342.27 580.41 341.28 577.44 340.26 574.38 C339.27 574.38 338.28 574.38 337.26 574.38 C336.59 575.84 335.93 577.3 335.26 578.76 C334.89 579.57 334.52 580.38 334.14 581.22 C333.26 583.38 333.26 583.38 333.26 585.38 C334.25 585.38 335.24 585.38 336.26 585.38 C336.26 584.39 336.26 583.4 336.26 582.38 C337.58 582.38 338.9 582.38 340.26 582.38 C340.26 583.37 340.26 584.36 340.26 585.38 C342.9 585.38 345.54 585.38 348.26 585.38 C347.93 583.4 347.6 581.42 347.26 579.38 C351.14 583.13 351.14 583.13 352.26 585.38 C352.92 585.38 353.58 585.38 354.26 585.38 C354.26 582.08 354.26 578.78 354.26 575.38 C356.26 577.01 356.26 577.01 358.26 579.38 C358.51 582.63 358.51 582.63 358.26 585.38 C359.58 585.38 360.9 585.38 362.26 585.38 C362.2 584.5 362.14 583.61 362.08 582.7 C362.28 579.04 363.18 577.34 365.26 574.38 C364.27 574.38 363.28 574.38 362.26 574.38 C362.26 575.37 362.26 576.36 362.26 577.38 C361.27 577.38 360.28 577.38 359.26 577.38 C359.26 576.06 359.26 574.74 359.26 573.38 C356.62 573.38 353.98 573.38 351.26 573.38 Z " fill="#FDFAE9" transform="translate(50.73610591888428,53.61688995361328)"/>
<path d="M0 0 C0.35 0.52 0.7 1.03 1.06 1.56 C3 3 3 3 6.12 2.69 C7.4 2.46 8.68 2.23 10 2 C17.16 1.48 23.98 2.67 31 4 C31.1 4.64 31.21 5.28 31.31 5.94 C31.54 6.62 31.77 7.3 32 8 C32.99 8.33 33.98 8.66 35 9 C34.67 10.32 34.34 11.64 34 13 C34.66 13 35.32 13 36 13 C36 13.99 36 14.98 36 16 C36.99 16.33 37.98 16.66 39 17 C38.67 17.99 38.34 18.98 38 20 C38.99 20 39.98 20 41 20 C41.31 23.25 41.31 23.25 41 27 C38.5 29.44 38.5 29.44 36 31 C35.09 30.46 34.19 29.93 33.25 29.38 C30 28 30 28 27.62 28.81 C27.36 29.01 27.36 29.01 26 30 C26.19 30.52 26.37 31.03 26.56 31.56 C27.15 34.84 26.48 37.72 26 41 C26.33 41.99 26.66 42.98 27 44 C26.36 47.64 26.36 47.64 25 49 C26.32 49.33 27.64 49.66 29 50 C29.33 52.31 29.66 54.62 30 57 C31.63 56.36 33.25 55.71 34.88 55.06 C35.78 54.7 36.68 54.34 37.62 53.97 C40 53 40 53 42 52 C42.33 52.66 42.33 52.66 44 56 C44.99 56 45.98 56 47 56 C47 57.98 47 59.96 47 62 C47.62 62.04 48.24 62.08 48.88 62.12 C49.58 62.41 50.28 62.7 51 63 C51.7 64.99 52.37 66.99 53 69 C53.99 69.33 54.98 69.66 56 70 C56.35 75.37 56.35 75.37 56 78 C54 80 54 80 52 81 C53.65 81.33 55.3 81.66 57 82 C56.79 82.93 56.59 83.86 56.38 84.81 C56 88 56 88 58 91 C59.32 91 60.64 91 62 91 C62 91.66 62 92.32 62 93 C62.99 93.16 62.99 93.16 68 94 C68.33 95.65 68.66 97.3 69 99 C70.32 98.67 71.64 98.34 73 98 C73.04 99.67 73.04 101.33 73 103 C72 104 72 104 69.44 104.06 C68.63 104.04 67.83 104.02 67 104 C66.67 103.01 66.34 102.02 66 101 C65.34 101 64.68 101 64 101 C63.67 100.34 63.34 99.68 63 99 C62.34 99.66 61.68 100.32 61 101 C59.68 100.34 58.36 99.68 57 99 C56.67 99.99 56.34 100.98 56 102 C55.67 102 55.34 102 55 102 C55 100.35 55 98.7 55 97 C50.48 96.92 46.41 96.9 42 98 C41.67 97.34 41.34 96.68 41 96 C39.85 96.33 39.85 96.33 34 98 C33.67 99.65 33.34 101.3 33 103 C33.66 103.33 34.32 103.66 35 104 C33.69 107.44 33.69 107.44 32 111 C31.01 111.33 30.02 111.66 29 112 C29 112.99 29 113.98 29 115 C28.34 115.99 27.68 116.98 27 118 C27.88 120.69 27.88 120.69 29 123 C26.69 123.99 24.38 124.98 22 126 C22.66 126 23.32 126 24 126 C24 126.99 24 127.98 24 129 C24.66 129 25.32 129 26 129 C26.33 130.98 26.66 132.96 27 135 C27.33 134.34 27.66 133.68 28 133 C28.66 133 29.32 133 30 133 C30 133.99 30 134.98 30 136 C31.65 135.67 33.3 135.34 35 135 C35.33 134.01 35.66 133.02 36 132 C38.64 131.67 41.28 131.34 44 131 C44.33 131.66 44.66 132.32 45 133 C44.6 133.52 44.2 134.04 43.79 134.57 C40.98 138.28 38.29 141.94 36 146 C37.32 147.32 38.64 148.64 40 150 C39.01 150.99 38.02 151.98 37 153 C39.31 153 41.62 153 44 153 C44.33 152.01 44.66 151.02 45 150 C45.8 149.88 46.61 149.75 47.44 149.62 C48.28 149.42 49.13 149.21 50 149 C50.33 148.34 50.66 147.68 51 147 C51.33 147.66 51.66 148.32 52 149 C52.66 147.68 53.32 146.36 54 145 C54.66 145 55.32 145 56 145 C56.33 144.01 56.66 143.02 57 142 C57.56 142.19 58.11 142.37 58.69 142.56 C61.4 143.08 63.34 142.66 66 142 C66.66 142.99 67.32 143.98 68 145 C68.62 144.79 69.24 144.59 69.88 144.38 C70.58 144.25 71.28 144.13 72 144 C72.66 144.66 73.32 145.32 74 146 C72.68 146 71.36 146 70 146 C69.34 148.31 68.68 150.62 68 153 C67.01 153 66.02 153 65 153 C65 153.66 65 154.32 65 155 C64.34 155.33 64.34 155.33 61 157 C61.33 158.98 61.66 160.96 62 163 C61.34 163 60.68 163 60 163 C59.34 164.32 58.68 165.64 58 167 C57.01 167 56.02 167 55 167 C55 167.99 55 168.98 55 170 C54.01 170 53.02 170 52 170 C52 170.99 52 171.98 52 173 C51.01 173.33 50.02 173.66 49 174 C48.67 174.66 48.34 175.32 48 176 C47.01 176 46.02 176 45 176 C45.33 177.65 45.66 179.3 46 181 C46.66 180.53 47.33 180.06 48.01 179.57 C48.89 178.95 49.78 178.33 50.69 177.69 C51.56 177.07 52.43 176.46 53.32 175.82 C55.83 174.11 58.38 172.53 61 171 C61 172.98 61 174.96 61 177 C60.34 177.33 60.34 177.33 57 179 C57 179.66 57 180.32 57 181 C58.32 180.01 59.64 179.02 61 178 C60.39 180.96 59.75 182.38 58 185 C57.34 185 56.68 185 56 185 C56 186.65 56 188.3 56 190 C54.02 190.99 52.04 191.98 50 193 C51 194 51 194 54.56 194.06 C55.13 194.05 55.13 194.05 58 194 C58.33 193.01 58.66 192.02 59 191 C59.33 191.66 59.66 192.32 60 193 C60.66 193 61.32 193 62 193 C61.67 191.35 61.34 189.7 61 188 C61.99 187.67 62.98 187.34 64 187 C64.66 188.98 65.32 190.96 66 193 C65.01 193.33 64.02 193.66 63 194 C62.31 196.06 62.31 196.06 62 198 C65.47 195.33 68.15 192.98 70.56 189.31 C72.71 186.13 74.35 185.28 78 184 C79.69 182.35 81.36 180.69 83 179 C83.99 178.67 84.98 178.34 86 178 C86.33 177.01 86.66 176.02 87 175 C87.87 175.08 88.73 175.16 89.62 175.25 C93.77 174.94 95.69 173.41 99 171 C99.66 171 100.32 171 101 171 C101 171.66 101 172.32 101 173 C101.66 173 102.32 173 103 173 C103 172.34 103 171.68 103 171 C103.66 170.34 104.32 169.68 105 169 C104.64 166.17 103.9 163.71 103 161 C102.01 160.67 101.02 160.34 100 160 C100 159.34 100 158.68 100 158 C98.35 157.67 96.7 157.34 95 157 C96 154 96 154 98.75 152.25 C102.18 150.93 103.57 150.89 107 152 C106.5 151.5 106.5 151.5 104 149 C104.75 147.06 104.75 147.06 106 145 C108.26 144.02 109.5 143.87 111.88 144.5 C114 145 114 145 116.62 144.44 C120.63 143.92 123.65 144.64 127.54 145.62 C130.32 146.05 132.27 145.63 135 145 C136.32 145 137.64 145 139 145 C139.33 145.66 139.66 146.32 140 147 C140.99 147.16 141.98 147.33 143 147.5 C143.99 147.66 144.98 147.83 146 148 C146.33 148.66 146.66 149.32 147 150 C149.18 150.34 149.18 150.34 151.88 150.5 C155.58 150.72 156.81 150.87 160 153 C160.51 153.11 160.51 153.11 163.06 153.69 C164.03 154.12 165 154.55 166 155 C167.38 158.63 167.38 158.63 168 162 C157.44 161.04 157.44 161.04 153 160 C153 159.34 153 158.68 153 158 C152.34 158 151.68 158 151 158 C151 158.66 151 159.32 151 160 C148.36 160.33 145.72 160.66 143 161 C144.32 161.66 145.64 162.32 147 163 C146.34 163.33 145.68 163.66 145 164 C145.33 164.99 145.66 165.98 146 167 C146.66 165.68 147.32 164.36 148 163 C149.32 163 150.64 163 152 163 C152 162.34 152 161.68 152 161 C157.58 162.21 161.76 164.49 166.57 167.56 C168.99 168.99 171.37 170.03 174 171 C174 171.66 174 172.32 174 173 C174.66 173 175.32 173 176 173 C176 174.65 176 176.3 176 178 C175.39 178.08 174.77 178.17 174.14 178.25 C172 179 172 179 170.73 180.78 C170.41 181.49 170.08 182.2 169.75 182.94 C169.58 183.29 169.58 183.29 168.73 185.09 C168 187 168 187 168 189 C169.98 189 171.96 189 174 189 C173.34 190.98 172.68 192.96 172 195 C173.32 195 174.64 195 176 195 C176.33 193.68 176.66 192.36 177 191 C177.33 191 177.66 191 178 191 C178 196.94 178 202.88 178 209 C177.34 208.34 176.68 207.68 176 207 C174.68 207.99 173.36 208.98 172 210 C171.67 209.34 171.34 208.68 171 208 C169.68 208 168.36 208 167 208 C167 210.97 167 213.94 167 217 C168.98 217.99 170.96 218.98 173 220 C172.67 221.65 172.34 223.3 172 225 C172.66 225 173.32 225 174 225 C177.09 227.84 178.26 230.07 178.48 234.17 C178.49 235.85 178.48 237.52 178.45 239.2 C178.45 240.11 178.46 241.03 178.46 241.98 C178.45 245 178.42 248.03 178.39 251.05 C178.38 253.15 178.38 255.25 178.37 257.35 C178.36 262.87 178.32 268.4 178.27 273.92 C178.23 279.56 178.22 285.19 178.2 290.83 C178.15 301.89 178.08 312.94 178 324 C177.01 324.33 176.02 324.66 175 325 C175 325.66 175 326.32 175 327 C130.72 327.09 86.44 327.16 42.15 327.2 C36.93 327.21 31.71 327.21 26.48 327.22 C25.44 327.22 24.4 327.22 23.33 327.22 C6.48 327.24 -10.38 327.27 -27.24 327.31 C-44.52 327.35 -61.81 327.37 -79.09 327.38 C-89.77 327.38 -100.44 327.4 -111.11 327.43 C-118.42 327.45 -125.74 327.46 -133.05 327.45 C-137.27 327.45 -141.49 327.46 -145.72 327.48 C-149.58 327.5 -153.44 327.5 -157.3 327.48 C-158.7 327.48 -160.1 327.49 -161.51 327.5 C-163.4 327.52 -165.3 327.5 -167.2 327.49 C-167.72 327.49 -167.72 327.49 -170.4 327.5 C-173 327 -173 327 -174.84 325.14 C-176.38 322.3 -176.37 320.22 -176.37 317 C-176.38 315.77 -176.39 314.54 -176.4 313.27 C-176.39 311.91 -176.38 310.55 -176.37 309.19 C-176.37 307.76 -176.38 306.32 -176.38 304.89 C-176.39 301 -176.38 297.1 -176.37 293.21 C-176.36 289.14 -176.36 285.07 -176.36 281 C-176.37 274.16 -176.35 267.32 -176.34 260.49 C-176.32 252.58 -176.31 244.67 -176.32 236.76 C-176.32 229.16 -176.32 221.55 -176.31 213.95 C-176.3 210.71 -176.3 207.47 -176.3 204.23 C-176.31 200.42 -176.3 196.61 -176.28 192.8 C-176.28 191.4 -176.28 190 -176.28 188.6 C-176.28 186.69 -176.27 184.78 -176.26 182.88 C-176.26 181.81 -176.26 180.74 -176.25 179.64 C-176 177 -176 177 -174 174 C-173.88 171 -173.88 171 -174 167.44 C-174.08 162.1 -173.71 157.39 -172.5 152.21 C-171.91 149.6 -171.64 146.97 -171.34 144.31 C-170.71 140.02 -169.69 135.8 -168.73 131.56 C-168.09 128.45 -167.68 125.41 -167.31 122.25 C-164.57 105.33 -153.04 84.99 -142 72 C-140.04 70.61 -138.04 69.27 -136 68 C-134.18 66.09 -132.5 64.11 -130.8 62.09 C-128.53 59.45 -126.04 57.1 -123.48 54.74 C-122 53 -122 53 -121.03 50.54 C-117.25 41.22 -105.77 34.95 -97 31 C-96.15 30.69 -95.31 30.38 -94.44 30.06 C-91.47 28.77 -89.11 26.99 -86.55 25.02 C-85 24 -85 24 -83 24 C-83 23.34 -83 22.68 -83 22 C-81.97 21.75 -80.94 21.5 -79.88 21.25 C-77.11 20.47 -75.63 19.74 -73.19 18.06 C-69.63 15.76 -66.44 14.83 -62.37 13.81 C-59.78 12.93 -58.15 11.65 -56 10 C-52.75 9.31 -52.75 9.31 -50 9 C-50 8.34 -50 7.68 -50 7 C-45.74 5.58 -41.69 5.98 -37.23 6.06 C-33.34 5.99 -30.17 5.53 -26.62 3.94 C-23.34 2.76 -20.47 2.93 -17 3 C-16.67 2.67 -16.34 2.34 -16 2 C-12.7 1.97 -9.4 2.07 -6.1 2.16 C-3 2 -3 2 0 0 Z M13 51 C12.67 52.32 12.34 53.64 12 55 C12.66 55 13.32 55 14 55 C13.67 56.16 13.67 56.16 12 62 C15.12 61.51 18 61 21 60 C21.33 60.99 21.66 61.98 22 63 C23.32 62.34 24.64 61.68 26 61 C25.34 59.68 24.68 58.36 24 57 C21 57 21 57 19 58 C18.75 57.03 18.5 56.06 18.25 55.06 C18.04 54.56 18.04 54.56 17 52 C14.88 51.12 14.88 51.12 13 51 Z M90 184 C89.01 184.33 88.02 184.66 87 185 C86.67 185.99 86.34 186.98 86 188 C85.62 188.04 85.62 188.04 83.69 188.25 C80.48 189.15 79.71 190.22 78 193 C78.33 193.66 78.66 194.32 79 195 C79.78 194.36 80.57 193.72 81.38 193.06 C84 191 84 191 86 190 C85.48 191.11 84.97 192.23 84.44 193.38 C84.2 193.97 84.2 193.97 83 197 C83.33 197.66 83.66 198.32 84 199 C84.66 199 85.32 199 86 199 C86.33 198.01 86.66 197.02 87 196 C90.23 192.89 93.74 192.12 98 191 C99.68 190.36 101.35 189.7 103 189 C99.8 187.93 97.34 187.93 94 188 C93.67 187.34 93.34 186.68 93 186 C92.34 186 91.68 186 91 186 C90.67 185.34 90.34 184.68 90 184 Z M62 210 C61.67 211.32 61.34 212.64 61 214 C60.34 214 59.68 214 59 214 C59 215.65 59 217.3 59 219 C58.6 219.11 58.6 219.11 56.56 219.69 C55.72 220.12 54.87 220.55 54 221 C53.19 223.62 53.19 223.62 53 226 C56.81 222.79 60.55 219.59 64 216 C64.66 216.33 65.32 216.66 66 217 C66.43 216.22 66.87 215.43 67.31 214.62 C69 212 69 212 72 210 C68.42 208.76 65.66 209.25 62 210 Z " fill="#DF6649" transform="translate(239,81)"/>
<path d="M0 0 C12.89 -0.02 25.78 -0.04 38.67 -0.05 C44.66 -0.06 50.64 -0.06 56.63 -0.08 C62.4 -0.09 68.17 -0.09 73.94 -0.09 C76.15 -0.1 78.35 -0.1 80.56 -0.11 C83.64 -0.11 86.72 -0.11 89.8 -0.11 C90.72 -0.12 91.64 -0.12 92.59 -0.12 C98.89 -0.11 98.89 -0.11 100 1 C100.1 2.55 100.13 4.1 100.13 5.66 C100.13 6.6 100.14 7.54 100.14 8.5 C100.13 9.49 100.13 10.48 100.12 11.5 C100.13 12.49 100.13 13.48 100.14 14.5 C100.14 15.44 100.13 16.38 100.13 17.34 C100.13 18.21 100.13 19.08 100.13 19.97 C100 22 100 22 99 23 C95.93 23.1 92.87 23.13 89.8 23.11 C89.32 23.11 89.32 23.11 86.87 23.11 C83.66 23.11 80.45 23.11 77.25 23.1 C75.03 23.1 72.81 23.09 70.59 23.09 C64.74 23.09 58.89 23.08 53.04 23.07 C47.07 23.06 41.11 23.05 35.14 23.05 C23.43 23.04 11.71 23.02 0 23 C0 15.41 0 7.82 0 0 Z M11 6 C9 8 9 8 8.75 11 C9 14 9 14 11 16 C13.5 16.25 13.5 16.25 16 16 C18 14 18 14 18.31 11 C18.21 10.01 18.11 9.02 18 8 C15 6 15 6 11 6 Z M68 6 C65.85 9.22 65.62 10.27 66 14 C68 16 68 16 70.62 16.12 C71.41 16.08 72.19 16.04 73 16 C74.38 13.24 74.19 11.05 74 8 C73.34 7.34 72.68 6.68 72 6 C70.68 6 69.36 6 68 6 Z M21 8 C19.65 10.71 19.93 13.01 20 16 C20.78 16 21.57 16 22.38 16 C23.92 16 25.46 16 27 16 C28.34 15.69 29.67 15.35 31 15 C31.12 9.25 31.12 9.25 30 7 C26.93 7 24.02 7.45 21 8 Z " fill="#F0E7E2" transform="translate(140,614)"/>
<path d="M0 0 C2 3 2 3 2 5 C2.72 4.69 3.44 4.38 4.19 4.06 C6.8 3.07 9.25 2.47 12 2 C12 2.66 12 3.32 12 4 C12.99 4 13.98 4 15 4 C15.17 4.66 15.17 4.66 16 8 C16.33 7.34 16.66 6.68 17 6 C17.6 6.21 18.2 6.41 18.81 6.62 C21 7 21 7 24 5 C24 5.99 24 6.98 24 8 C24.66 8 25.32 8 26 8 C26.17 8.33 26.17 8.33 27 10 C28.98 10.73 30.98 11.4 33 12 C33.17 13.16 33.17 13.16 34 19 C33.34 19.33 33.34 19.33 30 21 C31.65 21.33 33.3 21.66 35 22 C32.38 26.88 32.38 26.88 29 28 C29 28.99 29 29.98 29 31 C29.66 31 30.32 31 31 31 C30.67 32.98 30.34 34.96 30 37 C26.23 37 25.09 36.76 22 35 C21.67 35.99 21.34 36.98 21 38 C20.34 38 19.68 38 19 38 C19 38.99 19 39.98 19 41 C18.62 40.97 18.62 40.97 16.69 40.81 C14 41 14 41 12.25 42.44 C11.84 42.95 11.43 43.47 11 44 C10.67 44.33 10.34 44.66 10 45 C11.32 45.33 12.64 45.66 14 46 C14.37 53.44 14.37 53.44 12.69 56 C11 57 11 57 8 57 C5 58 5 58 4 60 C1.35 60.59 -1.29 60.74 -4 61 C-3.01 59.35 -2.02 57.7 -1 56 C-1.66 56 -2.32 56 -3 56 C-3.66 54.68 -4.32 53.36 -5 52 C-4.01 51.01 -3.02 50.02 -2 49 C-2.33 48.34 -2.66 47.68 -3 47 C-1.44 45.8 0.12 44.59 1.69 43.39 C3 42 3 42 3 39 C-4.1 39.67 -4.1 39.67 -7 43 C-7.99 43 -8.98 43 -10 43 C-10 42.01 -10 41.02 -10 40 C-10.66 40.99 -11.32 41.98 -12 43 C-12.66 42.67 -13.32 42.34 -14 42 C-14 41.34 -14 40.68 -14 40 C-14.66 39.34 -15.32 38.68 -16 38 C-15.34 38 -14.68 38 -14 38 C-14 37.34 -14 36.68 -14 36 C-14.66 36 -15.32 36 -16 36 C-16.33 35.34 -16.66 34.68 -17 34 C-17.33 34.16 -17.33 34.16 -19 35 C-18.67 34.01 -18.34 33.02 -18 32 C-16.68 32 -15.36 32 -14 32 C-13 30 -13 30 -13 27 C-13 26.34 -13 25.68 -13 25 C-13.66 24.67 -14.32 24.34 -15 24 C-14.67 23.7 -14.67 23.7 -13 22.19 C-11 20 -11 20 -11 17 C-10.01 17 -9.02 17 -8 17 C-6.51 13.14 -5.81 10.96 -7 7 C-6.56 4.75 -6.56 4.75 -6 3 C-6 3.66 -6 4.32 -6 5 C-5.38 4.65 -4.76 4.3 -4.12 3.94 C-3.42 3.63 -2.72 3.32 -2 3 C-1.34 3.33 -0.68 3.66 0 4 C0 2.68 0 1.36 0 0 Z " fill="#D05651" transform="translate(279,174)"/>
<path d="M0 0 C3 1 3 1 5 4 C8.24 6.49 10.7 7.92 14.69 8.94 C18 10 18 10 19.94 12.5 C21 15 21 15 21 17 C22.32 17 23.64 17 25 17 C27.13 19.85 28.35 22.51 29 26 C29.6 26.1 30.2 26.21 30.81 26.31 C33.28 27.09 34.32 28.07 36 30 C36.45 29.5 36.91 29.01 37.38 28.5 C39 27 39 27 41 27 C41.43 28.13 41.87 29.27 42.31 30.44 C42.87 31.61 43.43 32.79 44 34 C44.99 34.33 45.98 34.66 47 35 C47.33 35.66 47.66 36.32 48 37 C48.78 36.79 49.57 36.59 50.38 36.38 C50.81 36.31 50.81 36.31 53 36 C53.66 36.66 54.32 37.32 55 38 C54.97 40.73 54.44 43.3 54 46 C54.99 46 55.98 46 57 46 C57 46.66 57 47.32 57 48 C57.33 48.16 57.33 48.16 59 49 C58.34 49 57.68 49 57 49 C57 50.65 57 52.3 57 54 C57.66 54 58.32 54 59 54 C59 54.66 59 55.32 59 56 C59.66 55.84 59.66 55.84 63 55 C63.16 56.49 63.16 56.49 64 64 C62.35 64 60.7 64 59 64 C59 65.98 59 67.96 59 70 C59.33 70.16 59.33 70.16 61 71 C60.01 71 59.02 71 58 71 C58 70.01 58 69.02 58 68 C57.47 67.94 57.47 67.94 54.81 67.62 C51 67 51 67 48.31 65.81 C46 65 46 65 43.69 65.88 C43.13 66.25 42.57 66.62 42 67 C42 66.01 42 65.02 42 64 C41.01 63.84 41.01 63.84 36 63 C36 62.34 36 61.68 36 61 C35.18 61.16 35.18 61.16 31 62 C29.16 58.22 28.84 56.05 30 52 C28.68 51.67 27.36 51.34 26 51 C27 49 27 49 29 48 C29.37 40.47 29.37 40.47 27.62 38.25 C27.09 37.84 26.55 37.43 26 37 C25.85 36.65 25.85 36.65 25.06 34.88 C24 33 24 33 21.88 32.25 C21.26 32.17 20.64 32.09 20 32 C20.33 30.02 20.66 28.04 21 26 C19.68 26.33 18.36 26.66 17 27 C16.34 25.68 15.68 24.36 15 23 C14.34 23.66 13.68 24.32 13 25 C10.84 25.63 10.84 25.63 8.38 26.12 C7.56 26.29 6.74 26.46 5.9 26.63 C5.27 26.75 4.65 26.88 4 27 C3.67 24.69 3.34 22.38 3 20 C1.02 20 -0.96 20 -3 20 C-2.83 19.5 -2.83 19.5 -2 17 C-1.34 17.33 -0.68 17.66 0 18 C0 16.02 0 14.04 0 12 C-0.33 12 -0.66 12 -1 12 C-1.1 7.86 -0.77 4.06 0 0 Z " fill="#BC3D62" transform="translate(265,111)"/>
<path d="M0 0 C0 0.66 0 1.32 0 2 C1.65 1.34 3.3 0.68 5 0 C5.17 0.66 5.17 0.66 6 4 C6.99 4 7.98 4 9 4 C9 5.65 9 7.3 9 9 C9.97 9.14 10.94 9.29 11.94 9.44 C15 10 15 10 16 11 C18.31 10.34 20.62 9.68 23 9 C23.6 9.66 24.2 10.32 24.81 11 C27 13 27 13 30 13 C30 13.66 30 14.32 30 15 C36.88 12.12 36.88 12.12 38 11 C42.17 11.39 45.31 12.09 49 14 C50.32 14 51.64 14 53 14 C53 14.66 53 15.32 53 16 C53.74 15.81 54.49 15.63 55.25 15.44 C57.95 15.01 59.45 15.15 62 16 C62 16.99 62 17.98 62 19 C62.78 18.94 63.57 18.88 64.38 18.81 C64.81 18.84 64.81 18.84 67 19 C69 22 69 22 69 25 C69.66 25 70.32 25 71 25 C71 27.31 71 29.62 71 32 C72.65 32 74.3 32 76 32 C76 32.33 76 32.66 76 33 C74.02 33 72.04 33 70 33 C69.67 32.01 69.34 31.02 69 30 C67.02 30 65.04 30 63 30 C62.84 29.5 62.84 29.5 62 27 C61.46 27.21 60.93 27.41 60.38 27.62 C57.12 28.14 55.08 27.15 52 26 C45.39 23.87 45.39 23.87 42 25 C42 24.01 42 23.02 42 22 C41.38 22.04 41.38 22.04 38.24 22.25 C36.6 22.36 34.95 22.46 33.31 22.56 C32.5 22.62 31.68 22.67 30.84 22.73 C26.65 22.99 23.11 22.93 19 22 C16.69 22.94 16.69 22.94 15 24 C15 23.34 15 22.68 15 22 C14.69 21.93 14.69 21.93 13.12 21.56 C11 21 11 21 9 20 C9.17 20.66 9.17 20.66 10 24 C8.35 25.32 6.7 26.64 5 28 C5.66 28.66 6.32 29.32 7 30 C6.34 30.99 5.68 31.98 5 33 C4.42 32.75 3.85 32.5 3.25 32.25 C2.51 32.17 1.76 32.09 1 32 C-1.25 33.94 -1.25 33.94 -3 36 C-3.33 35.34 -3.66 34.68 -4 34 C-7 35 -7 35 -8 37 C-8.66 37 -9.32 37 -10 37 C-9.01 34.03 -8.02 31.06 -7 28 C-7.99 28 -8.98 28 -10 28 C-10.33 27.01 -10.66 26.02 -11 25 C-12.32 25 -13.64 25 -15 25 C-15.66 25.66 -16.32 26.32 -17 27 C-17 26.01 -17 25.02 -17 24 C-20 25 -20 25 -21 27 C-21.66 27 -22.32 27 -23 27 C-23.33 25.35 -23.66 23.7 -24 22 C-25.32 21.67 -26.64 21.34 -28 21 C-28 19 -28 19 -25.81 16.81 C-23 15 -23 15 -20.19 15.25 C-19.47 15.5 -18.74 15.75 -18 16 C-18 15.01 -18 14.02 -18 13 C-16.5 11.31 -16.5 11.31 -15 10 C-12.69 10.66 -10.38 11.32 -8 12 C-7.34 10.02 -6.68 8.04 -6 6 C-6.66 6 -7.32 6 -8 6 C-8.33 5.01 -8.66 4.02 -9 3 C-5.56 0.71 -4.28 0 0 0 Z " fill="#CB6348" transform="translate(316,199)"/>
<path d="M0 0 C0.33 0.66 0.66 1.32 1 2 C3.32 2.39 5.66 2.72 8 3 C10.31 3.38 10.31 3.38 12 4 C12.33 4.5 12.33 4.5 14 7 C15.32 7 16.64 7 18 7 C19.32 7 20.64 7 22 7 C22.33 7.5 22.33 7.5 24 10 C24.99 10.33 25.98 10.66 27 11 C27 11.66 27 12.32 27 13 C28.65 12.67 30.3 12.34 32 12 C32 12.66 32 13.32 32 14 C32.33 13.96 32.33 13.96 33.98 13.78 C44.57 12.66 44.57 12.66 48 13 C48.66 13.99 49.32 14.98 50 16 C52.09 16.48 52.09 16.48 54.5 16.62 C58.84 16.92 58.84 16.92 61 18 C61 18.66 61 19.32 61 20 C62.26 20.14 63.52 20.29 64.81 20.44 C67.43 20.74 69.47 21.16 72 22 C72 22.66 72 23.32 72 24 C72.99 23.67 73.98 23.34 75 23 C77.01 23.29 79.01 23.64 81 24 C85.68 24.55 90.28 25 95 25 C95.16 24.5 95.16 24.5 96 22 C96.68 23.89 97.34 25.79 98 27.69 C98.19 28.22 98.19 28.22 99.12 30.89 C99.94 33.78 100.18 36.02 100 39 C93.88 39.5 90.98 38.25 86 35 C86 34.34 86 33.68 86 33 C84.95 33.19 83.9 33.37 82.81 33.56 C77.06 34.22 73.09 32.74 67.87 30.52 C66 30 66 30 63 31 C60.31 30.06 60.31 30.06 58 29 C58 28.34 58 27.68 58 27 C57.62 26.97 57.62 26.97 55.7 26.82 C54.71 26.73 53.71 26.65 52.69 26.56 C51.7 26.48 50.72 26.4 49.7 26.32 C47 26 44.69 25.23 42.12 24.38 C40 24 40 24 37.76 24.5 C34.59 25.07 31.89 24.88 28.69 24.56 C27.62 24.46 26.55 24.36 25.45 24.25 C24.64 24.17 23.83 24.09 23 24 C22.34 24.99 21.68 25.98 21 27 C20.4 26.81 19.8 26.63 19.19 26.44 C17 26 17 26 14 27 C13.01 26.67 12.02 26.34 11 26 C11 25.34 11 24.68 11 24 C9.02 24.66 7.04 25.32 5 26 C5 25.34 5 24.68 5 24 C3.68 23.67 2.36 23.34 1 23 C1 22.34 1 21.68 1 21 C-0.32 20.67 -1.64 20.34 -3 20 C-2.01 19.67 -1.02 19.34 0 19 C0.71 16.24 1.06 14.32 0.5 11.5 C-0.06 8.68 0.29 6.76 1 4 C-0.65 4.66 -2.3 5.32 -4 6 C-3.69 4.12 -3.69 4.12 -3 2 C-2.01 1.34 -1.02 0.68 0 0 Z " fill="#B85055" transform="translate(311,175)"/>
<path d="M0 0 C0.87 0 1.73 0.01 2.62 0.01 C3.61 0.01 4.59 0.01 5.6 0.01 C6.66 0.02 7.72 0.03 8.81 0.05 C9.36 0.05 9.36 0.05 12.1 0.05 C15.58 0.06 19.05 0.09 22.52 0.12 C24.88 0.13 27.23 0.13 29.58 0.14 C35.35 0.16 41.13 0.2 46.9 0.24 C46.9 8.16 46.9 16.08 46.9 24.24 C39.8 24.26 32.69 24.28 25.59 24.3 C23.17 24.3 20.76 24.31 18.34 24.32 C14.87 24.33 11.4 24.33 7.93 24.34 C6.85 24.34 5.76 24.35 4.64 24.35 C4.14 24.35 4.14 24.35 1.6 24.35 C1.16 24.36 1.16 24.36 -1.08 24.36 C-3.1 24.24 -3.1 24.24 -4.1 23.24 C-4.35 19.77 -4.29 16.28 -4.29 12.8 C-4.3 11.82 -4.31 10.84 -4.33 9.83 C-4.33 9.36 -4.33 9.36 -4.33 6.99 C-4.34 6.13 -4.34 5.27 -4.34 4.38 C-4 1.36 -3.03 0.35 0 0 Z " fill="#EBE0DF" transform="translate(69.10073852539063,612.7594909667969)"/>
<path d="M0 0 C0.52 0.04 0.52 0.04 3.14 0.25 C4.51 0.36 5.88 0.46 7.25 0.56 C7.93 0.62 8.61 0.67 9.32 0.73 C12.74 0.98 15.73 1.14 19 0 C19 0.66 19 1.32 19 2 C19.68 1.79 20.36 1.59 21.06 1.38 C24.82 0.9 27.42 1.85 31 3 C32.66 3.35 34.33 3.7 36 4 C36 4.66 36 5.32 36 6 C42.75 7.12 42.75 7.12 45 6 C46.88 6.78 46.88 6.78 49.12 7.94 C54.64 10.51 59.12 10.96 65 9 C65 9.99 65 10.98 65 12 C70.01 15.01 73.33 15.29 79 15 C80.21 19.7 80.07 24.17 80 29 C76.7 28.67 73.4 28.34 70 28 C70 28.66 70 29.32 70 30 C66.62 30.84 64.33 31.11 61 30 C61 30.99 61 31.98 61 33 C61.66 33.33 62.32 33.66 63 34 C60.03 33.67 57.06 33.34 54 33 C53 29 53 29 54 26 C53.34 26 52.68 26 52 26 C51.89 25.6 51.89 25.6 51.31 23.56 C50.88 22.72 50.45 21.87 50 21 C47.38 20.19 47.38 20.19 45 20 C45 19.01 45 18.02 45 17 C42.03 17 39.06 17 36 17 C36 16.34 36 15.68 36 15 C35.09 15.23 34.19 15.45 33.25 15.69 C29.36 16.06 28.91 15.35 26 13 C23.38 12.69 23.38 12.69 21 13 C20.34 13.66 19.68 14.32 19 15 C17.01 15.4 15.01 15.74 13 16 C13 15.34 13 14.68 13 14 C11.68 14.33 10.36 14.66 9 15 C9 14.01 9 13.02 9 12 C4.71 10.74 2.12 11.37 -2 13 C-2 12.34 -2 11.68 -2 11 C-2.99 10.84 -2.99 10.84 -8 10 C-8.1 9.36 -8.21 8.72 -8.31 8.06 C-8.54 7.38 -8.77 6.7 -9 6 C-9.99 5.67 -10.98 5.34 -12 5 C-11.67 3.68 -11.34 2.36 -11 1 C-11 1.66 -11 2.32 -11 3 C-9.35 3.33 -7.7 3.66 -6 4 C-5.67 3.34 -5.34 2.68 -5 2 C-3.68 2.66 -2.36 3.32 -1 4 C-0.67 2.68 -0.34 1.36 0 0 Z " fill="#BF5B4D" transform="translate(333,198)"/>
<path d="M0 0 C0.66 0 1.32 0 2 0 C2 0.66 2 1.32 2 2 C2.99 2 3.98 2 5 2 C5 2.66 5 3.32 5 4 C5.26 3.91 5.26 3.91 6.56 3.44 C9.86 2.85 12.72 3.43 16 4 C16 5.32 16 6.64 16 8 C16.66 8 17.32 8 18 8 C18 8.66 18 9.32 18 10 C18.93 10.14 19.86 10.29 20.81 10.44 C24 11 24 11 27 12 C27 12.66 27 13.32 27 14 C27.8 14.27 28.61 14.54 29.44 14.81 C30.28 15.2 31.13 15.6 32 16 C32.17 16.5 32.17 16.5 33 19 C33.56 18.97 33.56 18.97 36.38 18.81 C41.43 18.81 46.42 19.83 51 22 C51.17 22.5 51.17 22.5 52 25 C54.97 26.98 57.36 27.63 60.8 28.43 C65.01 29.52 69.11 31.06 73 33 C75.04 33.23 77.08 33.41 79.12 33.56 C80.22 33.65 81.32 33.73 82.45 33.82 C82.87 33.85 82.87 33.85 85 34 C85 34.99 85 35.98 85 37 C85.66 37 86.32 37 87 37 C87 37.66 87 38.32 87 39 C87.66 39 88.32 39 89 39 C89 37.35 89 35.7 89 34 C92.57 37.73 93.11 42.09 94 47 C90.34 49.04 90.34 49.04 87.31 48.69 C85 48 85 48 84 47 C82.11 46.62 80.21 46.3 78.31 46 C77.28 45.84 76.24 45.67 75.18 45.5 C74.13 45.34 73.08 45.17 72 45 C70.94 44.79 69.88 44.59 68.79 44.38 C66 44 66 44 63 45 C62.01 42.69 61.02 40.38 60 38 C59.01 38.33 58.02 38.66 57 39 C51.41 39.47 48.75 39.17 43.94 36.02 C40.25 34.08 36.09 33.63 32 33 C32 31.68 32 30.36 32 29 C31.01 29 30.02 29 29 29 C29 29.66 29 30.32 29 31 C25.92 29.8 22.94 28.52 20 27 C20 26.01 20 25.02 20 24 C18.68 24.33 17.36 24.66 16 25 C16 24.34 16 23.68 16 23 C15.34 23 14.68 23 14 23 C14 20.36 14 17.72 14 15 C13.01 15 12.02 15 11 15 C11 12.36 11 9.72 11 7 C9.68 7 8.36 7 7 7 C6.01 6.67 5.02 6.34 4 6 C4 5.34 4 4.68 4 4 C2.68 4 1.36 4 0 4 C-0.33 3.01 -0.66 2.02 -1 1 C-0.67 0.67 -0.34 0.34 0 0 Z " fill="#A63B62" transform="translate(308,142)"/>
<path d="M0 0 C0.99 0.33 1.98 0.66 3 1 C3.31 1.64 3.62 2.28 3.94 2.94 C5.26 5.5 6.3 6.1 9 7 C9.99 6.67 10.98 6.34 12 6 C19.16 7.02 23.66 11.38 29 16 C29.68 16.58 30.36 17.17 31.07 17.77 C33.06 19.49 35.03 21.24 37 23 C37.77 23.67 38.54 24.33 39.33 25.02 C63.19 45.9 63.19 45.9 64 57 C62.68 57 61.36 57 60 57 C60 56.34 60 55.68 60 55 C59.3 54.9 58.6 54.79 57.88 54.69 C55 54 55 54 52 52.44 C48.98 50.99 47.29 50.71 44 51 C44 50.01 44 49.02 44 48 C41.36 48.33 38.72 48.66 36 49 C36 48.34 36 47.68 36 47 C35.01 47 34.02 47 33 47 C30.31 44.62 30.31 44.62 28 42 C28 41.34 28 40.68 28 40 C27.34 40 26.68 40 26 40 C23 34.38 23 34.38 23 31 C21.68 31.33 20.36 31.66 19 32 C18.34 31.01 17.68 30.02 17 29 C16.01 28.67 15.02 28.34 14 28 C12.42 24.72 11.15 21.45 10 18 C8.68 18.33 7.36 18.66 6 19 C3.94 16.69 3.94 16.69 2 14 C2.33 13.01 2.66 12.02 3 11 C2.34 11 1.68 11 1 11 C0.19 8.09 -0.22 6.54 0.94 3.69 C1.29 3.13 1.64 2.57 2 2 C1.34 2 0.68 2 0 2 C0 1.34 0 0.68 0 0 Z " fill="#902375" transform="translate(321,103)"/>
<path d="M0 0 C7.25 -0.42 13.17 0.56 20 3 C20 3.33 20 3.66 20 4 C18.35 4 16.7 4 15 4 C16.75 7.88 16.75 7.88 19 9 C19.73 11.31 20.4 13.65 21 16 C20.34 16.66 19.68 17.32 19 18 C18.01 17.34 17.02 16.68 16 16 C16.33 16.66 16.66 17.32 17 18 C17.99 18.33 18.98 18.66 20 19 C20 19.99 20 20.98 20 22 C20.66 21.34 21.32 20.68 22 20 C23.32 20 24.64 20 26 20 C26.12 20.56 26.25 21.11 26.38 21.69 C27.71 26.63 28.86 28.96 33 32 C33 32.99 33 33.98 33 35 C34.32 35 35.64 35 37 35 C37.17 35.66 37.17 35.66 38 39 C38.99 39 39.98 39 41 39 C42.25 41.74 43.01 43.65 42.94 46.69 C42.96 47.45 42.98 48.21 43 49 C43.99 49.66 44.98 50.32 46 51 C46 52.32 46 53.64 46 55 C47.32 55 48.64 55 50 55 C50 56.32 50 57.64 50 59 C51.65 59 53.3 59 55 59 C55.17 59.99 55.17 59.99 56 65 C56.91 64.92 57.81 64.83 58.75 64.75 C62 65 62 65 64.44 66.75 C66 69 66 69 65.75 71.25 C65.63 71.54 65.63 71.54 65 73 C61 73 61 73 58.88 71.06 C58.26 70.38 57.64 69.7 57 69 C56.67 68.84 56.67 68.84 55 68 C55 67.34 55 66.68 55 66 C54.01 66.33 53.02 66.66 52 67 C52 66.34 52 65.68 52 65 C51.01 64.84 51.01 64.84 46 64 C46 63.34 46 62.68 46 62 C45.34 62 44.68 62 44 62 C44 60.68 44 59.36 44 58 C40.37 58 36.74 58 33 58 C33 57.34 33 56.68 33 56 C32.01 56 31.02 56 30 56 C30 55.34 30 54.68 30 54 C29.5 54.16 29.5 54.16 27 55 C25.11 52.61 23.98 50.93 23 48 C22.01 48 21.02 48 20 48 C19.21 45.22 18.88 42.77 18.9 39.89 C18.91 39.14 18.91 38.38 18.91 37.61 C18.92 36.83 18.93 36.05 18.94 35.25 C18.94 34.46 18.95 33.66 18.95 32.85 C18.96 30.9 18.98 28.95 19 27 C17.35 26.67 15.7 26.34 14 26 C14 25.01 14 24.02 14 23 C13.01 22.67 12.02 22.34 11 22 C8.37 17.75 7.49 13.94 7 9 C6.01 9 5.02 9 4 9 C1.81 7.31 1.81 7.31 0 5 C-0.11 2.36 -0.11 2.36 0 0 Z " fill="#AA2D6C" transform="translate(280,88)"/>
<path d="M0 0 C2.97 1.12 5.33 2.22 8 4 C8 3.34 8 2.68 8 2 C8.99 2 9.98 2 11 2 C11 3.32 11 4.64 11 6 C11.64 6.03 12.28 6.05 12.94 6.08 C17.35 6.37 20.88 6.6 24.62 9.06 C29.43 11.82 33.06 11.59 38.5 10.5 C39 10.34 39.49 10.17 40 10 C40.66 12.31 41.32 14.62 42 17 C42.68 16.79 43.36 16.59 44.06 16.38 C47.83 15.89 50.37 16.91 54 18 C56.36 18.29 58.71 18.49 61.08 18.66 C63 19 63 19 65 21 C68.12 20.62 68.12 20.62 71 20 C71.33 18.35 71.66 16.7 72 15 C75.62 18.62 76.88 24.03 77.19 29.06 C77.16 29.38 77.16 29.38 77 31 C75.68 31.66 74.36 32.32 73 33 C73 32.34 73 31.68 73 31 C72.05 31.01 71.09 31.02 70.11 31.04 C68.86 31.04 67.6 31.05 66.31 31.06 C65.07 31.07 63.83 31.09 62.55 31.1 C59.54 31.01 56.92 30.71 54 30 C54 29.34 54 28.68 54 28 C50.37 27.34 46.74 26.68 43 26 C43 25.34 43 24.68 43 24 C42.39 24.03 42.39 24.03 39.31 24.19 C35.43 24.19 33.08 23.5 30 21 C30 20.34 30 19.68 30 19 C29.35 19.07 28.7 19.14 28.02 19.22 C23.33 19.72 18.73 20.12 14 20 C14 19.34 14 18.68 14 18 C12.35 18.33 10.7 18.66 9 19 C9 18.34 9 17.68 9 17 C8.36 16.88 7.72 16.75 7.06 16.62 C6.72 16.52 6.72 16.52 5 16 C4.67 15.34 4.34 14.68 4 14 C1.93 13.37 1.93 13.37 -0.56 12.88 C-0.98 12.79 -0.98 12.79 -3.07 12.37 C-3.7 12.25 -4.34 12.12 -5 12 C-5 10.02 -5 8.04 -5 6 C-3.35 6 -1.7 6 0 6 C0 4.02 0 2.04 0 0 Z " fill="#AE465B" transform="translate(329,169)"/>
<path d="M0 0 C0.41 0.47 0.82 0.95 1.25 1.44 C3.18 3.16 4.48 3.57 7 4 C7 4.66 7 5.32 7 6 C13.62 7 13.62 7 17 7 C17 7.66 17 8.32 17 9 C17.68 9.18 18.35 9.36 19.05 9.55 C19.49 9.68 19.49 9.68 21.75 10.31 C22.63 10.56 23.51 10.8 24.42 11.05 C27.09 12.03 28.9 13.09 31 15 C31 15.66 31 16.32 31 17 C31.99 17 32.98 17 34 17 C34 17.66 34 18.32 34 19 C34.66 18.67 35.32 18.34 36 18 C38 17.96 40 17.96 42 18 C42 18.99 42 19.98 42 21 C42.68 20.75 43.36 20.5 44.06 20.25 C47.79 19.93 49.28 21.06 52.35 23.01 C54.19 24.11 55.88 24.66 58 25 C57.89 25.38 57.89 25.38 57.31 27.31 C57 30 57 30 58.19 31.59 C60.35 33.27 62 33.68 64.69 34.19 C65.09 34.27 65.09 34.27 67.14 34.67 C67.75 34.78 68.37 34.89 69 35 C68.67 36.65 68.34 38.3 68 40 C68.8 40.31 69.61 40.62 70.44 40.94 C73 42 73 42 74 43 C74.04 44.67 74.04 46.33 74 48 C73.34 48 72.68 48 72 48 C72 47.34 72 46.68 72 46 C71.34 46 70.68 46 70 46 C70 45.01 70 44.02 70 43 C69.54 43.01 69.54 43.01 67.23 43.07 C66.63 43.08 66.63 43.08 63.62 43.12 C63.03 43.14 63.03 43.14 60.04 43.2 C57 43 57 43 55 41 C53.08 40.22 53.08 40.22 50.81 39.5 C50.41 39.37 50.41 39.37 48.39 38.72 C46.31 38.09 44.22 37.51 42.12 36.94 C39 36 39 36 36 34 C36 33.01 36 32.02 36 31 C34.04 30.66 32.08 30.33 30.12 30 C29.03 29.81 27.94 29.63 26.82 29.44 C24 29 24 29 22 29 C21.31 26.51 21 24.62 21 22 C18.36 21.34 15.72 20.68 13 20 C12.67 18.02 12.34 16.04 12 14 C11.61 14.03 11.61 14.03 9.62 14.19 C9.19 14.16 9.19 14.16 7 14 C6.34 13.01 5.68 12.02 5 11 C4.34 10.67 3.68 10.34 3 10 C2.86 9.36 2.71 8.72 2.56 8.06 C2 6 2 6 -1 4 C-0.67 2.68 -0.34 1.36 0 0 Z " fill="#9A2F6A" transform="translate(323,133)"/>
<path d="M0 0 C2.13 0.06 4.25 0.15 6.38 0.25 C7.56 0.3 8.74 0.34 9.96 0.39 C13 1 13 1 14.38 2.84 C15.16 5.54 15.62 8.22 16 11 C15.01 11.33 14.02 11.66 13 12 C13 12.66 13 13.32 13 14 C12.34 14 11.68 14 11 14 C11 13.34 11 12.68 11 12 C10.75 12.18 10.75 12.18 9.46 13.09 C3.61 17.04 3.61 17.04 -0.06 16.81 C-3 17 -3 17 -4.79 18.73 C-5.99 20.17 -7.16 21.65 -8.29 23.15 C-10.24 25.26 -11.28 25.38 -14 26 C-14.66 26.99 -15.32 27.98 -16 29 C-16.33 28.67 -16.66 28.34 -17 28 C-17.46 28.63 -17.92 29.25 -18.39 29.9 C-19 30.72 -19.62 31.53 -20.25 32.38 C-20.85 33.19 -21.46 34 -22.08 34.84 C-23.97 36.97 -25.38 37.95 -28 39 C-27.43 36.13 -27.14 35.14 -25 33 C-25.38 30.38 -25.38 30.38 -26 28 C-26.66 28.33 -27.32 28.66 -28 29 C-28 30.65 -28 32.3 -28 34 C-28.99 33.67 -29.98 33.34 -31 33 C-31.35 33.52 -31.7 34.03 -32.06 34.56 C-34 36 -34 36 -37.69 35.69 C-38.78 35.46 -39.87 35.23 -41 35 C-40 33 -40 33 -36.94 31.88 C-36.45 31.73 -36.45 31.73 -34 31 C-34.08 30.26 -34.17 29.51 -34.25 28.75 C-33.93 25.22 -32.65 24.23 -30 22 C-30.33 21.67 -30.66 21.34 -31 21 C-31.66 21.33 -31.66 21.33 -35 23 C-34.25 21.06 -34.25 21.06 -33 19 C-30.88 18.25 -30.88 18.25 -29 18 C-29.04 17.63 -29.04 17.63 -29.25 15.75 C-29 13 -29 13 -27.56 10.69 C-23.81 8.21 -20.37 8.66 -16 9 C-15.67 8.01 -15.34 7.02 -15 6 C-13.68 6 -12.36 6 -11 6 C-10.67 4.35 -10.34 2.7 -10 1 C-8.35 1.33 -8.35 1.33 0 3 C0 2.01 0 1.02 0 0 Z " fill="#DE7C38" transform="translate(329,240)"/>
<path d="M0 0 C5.9 -0.31 9.87 -0.08 15 3 C16.19 6.12 16.19 6.12 17 9 C18.88 9.56 18.88 9.56 21 10 C25 14.22 25 14.22 25 18 C25.66 18 26.32 18 27 18 C27 19.32 27 20.64 27 22 C27.66 22 28.32 22 29 22 C29.12 22.58 29.25 23.16 29.38 23.75 C30.01 26.02 30.89 27.93 32 30 C33.32 29.67 34.64 29.34 36 29 C40 34.5 40 34.5 40 39 C40.31 39.06 40.31 39.06 41.88 39.38 C44 40 44 40 46 42 C46.99 42 47.98 42 49 42 C49.99 44.97 50.98 47.94 52 51 C52.66 51 53.32 51 54 51 C54 51.66 54 52.32 54 53 C50.27 52.5 48.19 52.13 45 50 C45 49.34 45 48.68 45 48 C43.91 48.21 42.81 48.41 41.69 48.62 C38 49 38 49 35 47 C35 46.34 35 45.68 35 45 C34.26 44.96 33.51 44.92 32.75 44.88 C28.85 43.63 27.9 41.52 26 38 C26 37.01 26 36.02 26 35 C25.34 35.16 25.34 35.16 22 36 C22 34.35 22 32.7 22 31 C20.68 31 19.36 31 18 31 C17.73 30.38 17.46 29.76 17.19 29.12 C16 27 16 27 13 25 C11.25 21.5 11.25 21.5 10 18 C10.33 17.34 10.66 16.68 11 16 C10.01 16.66 9.02 17.32 8 18 C7.01 18 6.02 18 5 18 C5 17.01 5 16.02 5 15 C3.68 14.67 2.36 14.34 1 14 C1 13.34 1 12.68 1 12 C2.32 12 3.64 12 5 12 C4.67 9.69 4.34 7.38 4 5 C3.01 4.67 2.02 4.34 1 4 C0.31 1.94 0.31 1.94 0 0 Z " fill="#9F2471" transform="translate(295,92)"/>
<path d="M0 0 C0.66 0.33 1.32 0.66 2 1 C2.62 3.56 2.62 3.56 3 6 C4.32 6 5.64 6 7 6 C7.33 6.99 7.66 7.98 8 9 C8.99 9 9.98 9 11 9 C11.17 9.84 11.34 10.69 11.52 11.55 C11.76 12.65 12 13.75 12.25 14.88 C12.48 15.97 12.71 17.06 12.95 18.18 C14 21 14 21 16.11 22.38 C16.73 22.59 17.36 22.79 18 23 C18 23.99 18 24.98 18 26 C19.65 26.33 21.3 26.66 23 27 C23.92 31.66 24.12 36.15 24.06 40.88 C24.06 41.56 24.05 42.25 24.05 42.96 C24.04 44.64 24.02 46.32 24 48 C24.99 48 25.98 48 27 48 C26.67 49.65 26.34 51.3 26 53 C25.01 53 24.02 53 23 53 C22.67 52.01 22.34 51.02 22 50 C21.69 49.94 21.69 49.94 20.12 49.62 C18 49 18 49 16.31 46.69 C15.2 44.41 14.46 42.48 14 40 C12.68 40 11.36 40 10 40 C9.46 38.89 8.93 37.77 8.38 36.62 C6.65 33.55 6.16 33.07 2.75 31.56 C1.84 31.38 0.94 31.19 0 31 C-0.33 31.66 -0.66 32.32 -1 33 C-1 32.01 -1 31.02 -1 30 C-3.31 29.34 -5.62 28.68 -8 28 C-8 26.68 -8 25.36 -8 24 C-8.66 23.67 -9.32 23.34 -10 23 C-8.62 21.5 -8.62 21.5 -7 20 C-6.34 20 -5.68 20 -5 20 C-5 20.66 -5 21.32 -5 22 C-3.35 22.33 -1.7 22.66 0 23 C0.66 21.68 1.32 20.36 2 19 C2.33 19.33 2.66 19.66 3 20 C3.33 17.69 3.66 15.38 4 13 C3.01 13 2.02 13 1 13 C1 12.01 1 11.02 1 10 C0.34 9.67 -0.32 9.34 -1 9 C-1 8.01 -1 7.02 -1 6 C-1.66 6 -2.32 6 -3 6 C-3 5.34 -3 4.68 -3 4 C-2.34 3.67 -1.68 3.34 -1 3 C-0.67 2.01 -0.34 1.02 0 0 Z " fill="#B7306B" transform="translate(276,88)"/>
<path d="M0 0 C0.95 0.33 1.9 0.66 2.88 1 C6.32 2.1 7.42 2.11 10.94 1.44 C14 1 14 1 17 2 C19.36 1.89 21.71 1.71 24.06 1.5 C30.78 0.89 30.78 0.89 33 2 C33 2.99 33 3.98 33 5 C33.72 4.63 34.44 4.26 35.19 3.88 C38 3 38 3 40.69 3.69 C43 5 43 5 45 8 C41.46 9.18 39.75 8.38 36.26 7.41 C33.07 6.83 30.25 7.27 27.08 7.81 C24.81 8.02 23.16 7.67 21 7 C20.01 8.32 19.02 9.64 18 11 C18.99 11.33 19.98 11.66 21 12 C21 12.66 21 13.32 21 14 C20.53 14.04 20.53 14.04 18.12 14.25 C13.88 14.83 10.23 16.44 6.33 18.16 C4 19 4 19 0 19 C0 18.01 0 17.02 0 16 C-0.66 16 -1.32 16 -2 16 C-1.67 16.99 -1.34 17.98 -1 19 C-4.63 19 -8.26 19 -12 19 C-12.33 19.66 -12.66 20.32 -13 21 C-16.77 23.8 -19.35 24.32 -24 24 C-24.66 22.02 -25.32 20.04 -26 18 C-24.35 17.67 -22.7 17.34 -21 17 C-21 16.34 -21 15.68 -21 15 C-20.34 15 -19.68 15 -19 15 C-19 15.66 -19 16.32 -19 17 C-18.34 17 -17.68 17 -17 17 C-16.67 16.01 -16.34 15.02 -16 14 C-13.94 13.31 -13.94 13.31 -12 13 C-11.67 13.66 -11.34 14.32 -11 15 C-10.01 13.68 -9.02 12.36 -8 11 C-6.68 11.33 -5.36 11.66 -4 12 C-4 9 -4 9 -5 7 C-1.25 4 -1.25 4 1 4 C0.67 2.68 0.34 1.36 0 0 Z " fill="#D26D41" transform="translate(325,219)"/>
<path d="M0 0 C3 1 3 1 4 3 C4.27 6.47 4.23 9.96 4.25 13.44 C4.26 13.92 4.26 13.92 4.31 16.37 C4.32 16.83 4.32 16.83 4.33 19.18 C4.34 20.03 4.35 20.89 4.36 21.76 C4 24 4 24 2.91 25.62 C0.02 27.71 -2.36 27.37 -5.89 27.36 C-6.6 27.36 -7.3 27.37 -8.03 27.37 C-10.39 27.37 -12.76 27.36 -15.13 27.34 C-16.82 27.34 -18.52 27.34 -20.21 27.34 C-24.82 27.34 -29.43 27.33 -34.04 27.3 C-38.85 27.29 -43.66 27.28 -48.47 27.28 C-57.59 27.27 -66.71 27.25 -75.82 27.22 C-86.2 27.18 -96.58 27.17 -106.95 27.15 C-128.3 27.12 -149.65 27.07 -171 27 C-171 26.34 -171 25.68 -171 25 C-154.83 25 -138.66 25 -122 25 C-122 17.41 -122 9.82 -122 2 C-121.67 2 -121.34 2 -121 2 C-121 9.59 -121 17.18 -121 25 C-114.07 25 -107.14 25 -100 25 C-100 17.41 -100 9.82 -100 2 C-99.67 2 -99.34 2 -99 2 C-99 9.59 -99 17.18 -99 25 C-66 24.67 -33 24.34 1 24 C1 3 1 3 0 0 Z " fill="#773A9B" transform="translate(238,612)"/>
<path d="M0 0 C1.98 0 3.96 0 6 0 C6.33 3.63 6.66 7.26 7 11 C7.57 10.21 8.14 9.41 8.72 8.59 C9.11 8.08 9.11 8.08 11.06 5.5 C11.82 4.48 12.57 3.46 13.35 2.41 C16 0 16 0 19.81 -0.34 C20.86 -0.23 21.91 -0.12 23 0 C21.2 4.05 18.54 6.87 15.56 10.1 C14 12 14 12 13 15 C13.66 15 14.32 15 15 15 C16.45 16.9 17.81 18.87 19.12 20.88 C19.85 21.97 20.57 23.06 21.32 24.18 C23 27 23 27 23 29 C19.94 29.62 19.94 29.62 16 29 C13.22 25.94 11.09 22.56 9 19 C8.34 19.33 7.68 19.66 7 20 C6.59 22.07 6.59 22.07 6.38 24.56 C6.3 25.39 6.23 26.22 6.15 27.07 C6.1 27.7 6.05 28.34 6 29 C4.02 29 2.04 29 0 29 C0 19.43 0 9.86 0 0 Z " fill="#733399" transform="translate(66,444)"/>
<path d="M0 0 C0.66 0 1.32 0 2 0 C2 0.99 2 1.98 2 3 C4.97 2.34 7.94 1.68 11 1 C11 1.66 11 2.32 11 3 C12.98 3 14.96 3 17 3 C16.67 4.32 16.34 5.64 16 7 C14.35 6.67 14.35 6.67 6 5 C6 5.99 6 6.98 6 8 C-0.62 8.25 -0.62 8.25 -4 6 C-4.33 7.65 -4.66 9.3 -5 11 C-5.64 11.12 -6.28 11.25 -6.94 11.38 C-7.62 11.58 -8.3 11.79 -9 12 C-9.33 12.66 -9.66 13.32 -10 14 C-11.65 14 -13.3 14 -15 14 C-15.33 14.66 -15.66 15.32 -16 16 C-16 15.34 -16 14.68 -16 14 C-19 15 -19 15 -21 18 C-22.33 18.33 -23.67 18.67 -25 19 C-27.08 20.28 -29.12 21.62 -31.12 23 C-36.88 26.94 -36.88 26.94 -39 28 C-39 26.02 -39 24.04 -39 22 C-38.01 22 -37.02 22 -36 22 C-35.67 21.01 -35.34 20.02 -35 19 C-34.01 19 -33.02 19 -32 19 C-32 18.01 -32 17.02 -32 16 C-31.01 16 -30.02 16 -29 16 C-29 15.01 -29 14.02 -29 13 C-28.7 12.87 -28.7 12.87 -27.19 12.19 C-25 11 -25 11 -23.68 9.49 C-21.48 7.54 -19.76 7.37 -16.88 6.94 C-14.18 6.53 -14.18 6.53 -12 6 C-11.67 5.34 -11.34 4.68 -11 4 C-9.34 2.34 -7.22 2.64 -4.94 2.44 C-4.48 2.4 -4.48 2.4 -2.15 2.18 C-1.44 2.12 -0.73 2.06 0 2 C0 1.34 0 0.68 0 0 Z " fill="#DB723E" transform="translate(323,235)"/>
<path d="M0 0 C0.4 0.01 0.4 0.01 2.44 0.06 C2.11 1.71 1.78 3.36 1.44 5.06 C2.43 5.06 3.42 5.06 4.44 5.06 C4.11 6.13 3.78 7.21 3.44 8.31 C2.44 12.06 2.44 12.06 2.44 16.06 C2.84 15.97 2.84 15.97 4.88 15.5 C5.3 15.43 5.3 15.43 7.44 15.06 C7.77 15.39 8.1 15.72 8.44 16.06 C9.76 16.06 11.08 16.06 12.44 16.06 C11.78 15.73 11.12 15.4 10.44 15.06 C11.12 13.12 11.12 13.12 12.44 11.06 C14.09 10.73 15.74 10.4 17.44 10.06 C17.44 14.68 17.44 19.3 17.44 24.06 C10.51 24.06 3.58 24.06 -3.56 24.06 C-3.59 20.25 -3.61 16.44 -3.62 12.62 C-3.63 11.54 -3.64 10.45 -3.65 9.33 C-3.65 8.29 -3.66 7.26 -3.66 6.19 C-3.67 5.23 -3.67 4.27 -3.68 3.29 C-3.51 0.07 -3.24 0.08 0 0 Z " fill="#BD9EC4" transform="translate(120.5625,612.9375)"/>
<path d="M0 0 C3.44 1.94 3.44 1.94 6 5 C7.07 9.95 6.78 13.73 4.12 18.06 C0.57 21.31 -2.07 21.33 -6.74 21.29 C-10.05 20.86 -11.75 19.39 -14 17 C-15.74 13.51 -15.58 9.8 -15 6 C-11.47 -0.59 -7 -1.66 0 0 Z M-7.75 5.12 C-9.58 7.87 -9.4 9.76 -9 13 C-7.5 15.38 -7.5 15.38 -6 17 C-3.56 16.62 -3.56 16.62 -1 16 C0.51 12.98 0.18 10.33 0 7 C-0.66 6.01 -1.32 5.02 -2 4 C-6 4 -6 4 -7.75 5.12 Z " fill="#733499" transform="translate(105,452)"/>
<path d="M0 0 C3.41 0.5 5.2 1.8 7.45 4.36 C7.45 5.02 7.45 5.68 7.45 6.36 C2.98 6.58 -0.37 5.95 -4.55 4.36 C-4.55 5.68 -4.55 7 -4.55 8.36 C-3.93 8.4 -3.32 8.44 -2.68 8.48 C-1.88 8.54 -1.07 8.61 -0.23 8.68 C0.57 8.73 1.37 8.79 2.19 8.85 C4.88 9.46 5.86 10.13 7.45 12.36 C7.33 15.93 7.33 15.93 6.45 19.36 C2.02 22.32 -2.34 22.02 -7.55 21.36 C-10.23 19.49 -10.23 19.49 -11.55 17.36 C-11.55 16.7 -11.55 16.04 -11.55 15.36 C-9.55 15.32 -7.55 15.32 -5.55 15.36 C-5.22 15.69 -4.89 16.02 -4.55 16.36 C-2.88 16.4 -1.21 16.41 0.45 16.36 C0.45 15.7 0.45 15.04 0.45 14.36 C-0.25 14.18 -0.94 14 -1.66 13.81 C-2.57 13.56 -3.48 13.31 -4.42 13.05 C-5.33 12.81 -6.23 12.56 -7.16 12.31 C-9.55 11.36 -9.55 11.36 -11.55 8.36 C-11.34 5.62 -10.98 3.93 -9.3 1.73 C-6.39 -0.54 -3.56 -0.1 0 0 Z " fill="#743599" transform="translate(125.546875,451.63671875)"/>
<path d="M0 0 C0.66 0 1.32 0 2 0 C2.33 -0.33 2.66 -0.66 3 -1 C5.77 -1.29 7.41 -1.36 9.81 0.12 C11.55 2.87 11.4 4.82 11 8 C9.81 9.88 9.81 9.88 8 11 C4.38 11.46 2.11 10.85 -1 9 C-1.66 9.66 -2.32 10.32 -3 11 C-6.73 11.38 -7.78 11.15 -11 9 C-11.37 5.6 -11.55 3.1 -10 0 C-6.64 -1.68 -3.64 -0.64 0 0 Z " fill="#C7ACC9" transform="translate(351,628)"/>
<path d="M0 0 C0.66 0 1.32 0 2 0 C2 0.66 2 1.32 2 2 C2.28 1.9 2.28 1.9 3.7 1.39 C6.65 0.89 8.09 1.6 10.81 2.81 C20.64 7 20.64 7 26 7 C26.33 6.34 26.66 5.68 27 5 C27 12.26 27 19.52 27 27 C22 24 22 24 21.19 21.31 C21.13 20.55 21.06 19.79 21 19 C22.32 19.33 23.64 19.66 25 20 C25 18.35 25 16.7 25 15 C24.34 15 23.68 15 23 15 C22.67 14.34 22.34 13.68 22 13 C20.04 12.27 18.09 11.55 16.12 10.85 C13.13 9.65 10.66 7.81 8 6 C5.7 4.9 3.37 3.95 1 3 C1 3.66 1 4.32 1 5 C-0.32 5 -1.64 5 -3 5 C-3.33 6.65 -3.66 8.3 -4 10 C-4.66 9.67 -5.32 9.34 -6 9 C-5.67 7.68 -5.34 6.36 -5 5 C-6.32 4.34 -7.64 3.68 -9 3 C-8 2 -8 2 -6.15 1.9 C-4.1 1.93 -2.05 1.97 0 2 C0 1.34 0 0.68 0 0 Z " fill="#D2743D" transform="translate(390,239)"/>
<path d="M0 0 C3.96 0 7.92 0 12 0 C12 1.65 12 3.3 12 5 C11.34 5.66 10.68 6.32 10 7 C9.01 7 8.02 7 7 7 C7.33 8.65 7.66 10.3 8 12 C3.71 12 -0.58 12 -5 12 C-5.33 10.68 -5.66 9.36 -6 8 C-6 9.32 -6 10.64 -6 12 C-7.32 12 -8.64 12 -10 12 C-9.67 8.37 -9.34 4.74 -9 1 C-5.6 2.13 -4.95 3.13 -3 6 C-2.01 4.02 -1.02 2.04 0 0 Z " fill="#AE88BB" transform="translate(373,627)"/>
<path d="M0 0 C2.17 3.25 2.24 4.13 2.2 7.89 C2.19 8.36 2.19 8.36 2.18 10.73 C2.16 11.7 2.14 12.68 2.12 13.69 C2.12 14.68 2.11 15.66 2.1 16.68 C2.07 19.12 2.04 21.56 2 24 C0 22.62 0 22.62 -2 21 C-2 20.34 -2 19.68 -2 19 C-2.66 19 -3.32 19 -4 19 C-3.67 17.35 -3.34 15.7 -3 14 C-5.31 13.34 -7.62 12.68 -10 12 C-10 8.7 -10 5.4 -10 2 C-7.24 1.4 -4.84 1 -2 1 C-1.34 0.67 -0.68 0.34 0 0 Z " fill="#E6902A" transform="translate(415,287)"/>
<path d="M0 0 C2.45 3.74 2.23 7.44 2.12 11.75 C2.12 12.45 2.11 13.14 2.1 13.86 C2.07 15.58 2.04 17.29 2 19 C1.34 18.01 0.68 17.02 0 16 C-1.66 15.64 -3.33 15.3 -5 15 C-5.33 14.34 -5.66 13.68 -6 13 C-7.97 12.47 -9.94 11.96 -11.93 11.49 C-14.46 10.89 -16.7 10.25 -19 9 C-19.33 7.68 -19.66 6.36 -20 5 C-16.7 5.33 -13.4 5.66 -10 6 C-10 5.34 -10 4.68 -10 4 C-7.03 4 -4.06 4 -1 4 C-0.67 2.68 -0.34 1.36 0 0 Z " fill="#C56649" transform="translate(413,222)"/>
<path d="M0 0 C0.83 0.01 1.65 0.02 2.51 0.03 C3.4 0.04 4.3 0.04 5.22 0.05 C5.69 0.06 5.69 0.06 8.06 0.1 C9.01 0.11 9.95 0.12 10.93 0.13 C13.26 0.15 15.6 0.19 17.94 0.23 C17.28 2.54 16.62 4.85 15.94 7.23 C13.94 4.23 13.94 4.23 13.94 2.23 C13.28 2.23 12.62 2.23 11.94 2.23 C12.27 4.87 12.6 7.51 12.94 10.23 C12.28 10.23 11.62 10.23 10.94 10.23 C10.28 8.25 9.62 6.27 8.94 4.23 C8.59 5.2 8.24 6.17 7.87 7.16 C5.94 10.23 5.94 10.23 2.56 11.23 C-0.95 11.23 -2.97 10.82 -6.06 9.23 C-5.4 8.9 -4.74 8.57 -4.06 8.23 C-4.1 7.28 -4.15 6.33 -4.19 5.35 C-4.05 1.84 -3.69 0.41 0 0 Z " fill="#BB9BC3" transform="translate(365.06298828125,611.77294921875)"/>
<path d="M0 0 C15.92 -0.67 31.83 1.2 47 6 C47 6.33 47 6.66 47 7 C44.69 7 42.38 7 40 7 C40 8.98 40 10.96 40 13 C39.34 13.33 38.68 13.66 38 14 C37.83 13.01 37.83 13.01 37 8 C36.67 8.99 36.34 9.98 36 11 C34 11 34 11 32.44 9.69 C31 8 31 8 30 5 C20.58 3.16 11.47 1.88 2 4 C1.34 2.68 0.68 1.36 0 0 Z " fill="#C0447A" transform="translate(240,81)"/>
<path d="M0 0 C7.75 -0.12 7.75 -0.12 10 1 C10 4.63 10 8.26 10 12 C6.79 13.61 3.56 13.06 0 13 C0 8.71 0 4.42 0 0 Z " fill="#C6AAC9" transform="translate(110,487)"/>
<path d="M0 0 C1.08 0.05 2.16 0.09 3.27 0.14 C4.36 0.18 5.44 0.21 6.56 0.25 C7.39 0.3 8.23 0.34 9.08 0.39 C9.08 1.38 9.08 2.37 9.08 3.39 C8.42 3.39 7.76 3.39 7.08 3.39 C7.08 2.73 7.08 2.07 7.08 1.39 C6.09 1.39 5.1 1.39 4.08 1.39 C4.93 2.11 5.77 2.83 6.64 3.58 C9.08 6.39 9.08 6.39 8.89 9.2 C8.63 9.92 8.36 10.65 8.08 11.39 C6.1 11.39 4.12 11.39 2.08 11.39 C2.41 10.07 2.74 8.75 3.08 7.39 C4.4 8.05 5.72 8.71 7.08 9.39 C6.67 9 6.67 9 4.58 7.02 C2.08 4.39 2.08 4.39 2.08 2.39 C1.42 2.39 0.76 2.39 0.08 2.39 C-0.06 3.5 -0.21 4.62 -0.36 5.77 C-0.92 9.39 -0.92 9.39 -1.92 11.39 C-2.91 11.39 -3.9 11.39 -4.92 11.39 C-4.92 10.73 -4.92 10.07 -4.92 9.39 C-5.58 9.39 -6.24 9.39 -6.92 9.39 C-6.92 10.05 -6.92 10.71 -6.92 11.39 C-7.58 11.06 -8.24 10.73 -8.92 10.39 C-9.33 8.32 -9.33 8.32 -9.54 5.83 C-9.62 5 -9.69 4.18 -9.77 3.32 C-9.82 2.69 -9.87 2.05 -9.92 1.39 C-6.92 2.39 -6.92 2.39 -5.92 4.39 C-5.55 3.74 -5.18 3.08 -4.8 2.41 C-2.92 0.39 -2.92 0.39 0 0 Z " fill="#AF8BBC" transform="translate(385.91796875,611.609375)"/>
<path d="M0 0 C40.26 0 80.52 0 122 0 C122 0.33 122 0.66 122 1 C81.74 1.33 41.48 1.66 0 2 C0 1.34 0 0.68 0 0 Z " fill="#6E2D96" transform="translate(116,612)"/>
<path d="M0 0 C32.67 0 65.34 0 99 0 C99 0.33 99 0.66 99 1 C66.66 1 34.32 1 1 1 C1 8.59 1 16.18 1 24 C0.67 24 0.34 24 0 24 C0 16.08 0 8.16 0 0 Z " fill="#BC9DC4" transform="translate(139,613)"/>
<path d="M0 0 C0.99 0.1 1.98 0.21 3 0.31 C5.46 4 5.31 5.96 5 10.31 C4.67 10.81 4.67 10.81 3 13.31 C0 13.69 0 13.69 -3 13.31 C-5.71 9.24 -5.31 7.15 -5 2.31 C-3 0.31 -3 0.31 0 0 Z " fill="#B593BF" transform="translate(226,486.6875)"/>
<path d="M0 0 C4.78 1.31 9.29 2.82 13.83 4.79 C18.93 7 18.93 7 20 7 C20 9.64 20 12.28 20 15 C16.06 16.31 13.88 15.24 10 14 C9.86 13.26 9.71 12.51 9.56 11.75 C9.1 9.49 8.56 7.24 8 5 C6.51 4.67 6.51 4.67 -1 3 C-0.67 2.01 -0.34 1.02 0 0 Z " fill="#CB6B42" transform="translate(396,231)"/>
<path d="M0 0 C6.35 1.7 11.79 4.36 17.5 7.56 C18.22 7.96 18.94 8.36 19.68 8.78 C24.87 11.74 24.87 11.74 26 14 C24.02 14 22.04 14 20 14 C19.67 14.66 19.34 15.32 19 16 C18.77 15.76 18.77 15.76 17.62 14.56 C16 13 16 13 14 12 C13.67 10.67 13.33 9.33 13 8 C12.34 7.67 11.68 7.34 11 7 C11 7.66 11 8.32 11 9 C11.66 9 12.32 9 13 9 C12.62 10.94 12.62 10.94 12 13 C11.67 13.16 11.67 13.16 10 14 C9.42 12.89 8.85 11.77 8.25 10.62 C6.49 7.51 5.24 6.51 2 5 C0.75 2.38 0.75 2.38 0 0 Z " fill="#9B277E" transform="translate(310,96)"/>
<path d="M0 0 C5.28 0 10.56 0 16 0 C15.51 7.62 15.51 7.62 15 10 C14.01 10.66 13.02 11.32 12 12 C11.67 11.67 11.34 11.34 11 11 C10.11 11.31 9.23 11.62 8.31 11.94 C5.53 12.83 2.87 13.49 0 14 C3.62 8.25 3.62 8.25 7 6 C8 5 8 5 9 2 C6.03 1.67 3.06 1.34 0 1 C0 0.67 0 0.34 0 0 Z " fill="#BC9DC4" transform="translate(123,613)"/>
<path d="M0 0 C-0.57 0.11 -1.13 0.22 -1.71 0.33 C-2.08 0.41 -2.08 0.41 -3.94 0.81 C-4.67 0.96 -5.4 1.11 -6.15 1.27 C-6.46 1.39 -6.46 1.39 -8 2 C-8.33 2.99 -8.66 3.98 -9 5 C-9.78 5.06 -10.57 5.12 -11.38 5.19 C-17.45 6.55 -22.84 9.56 -28 13 C-30.69 13.12 -30.69 13.12 -33 13 C-33 13.66 -33 14.32 -33 15 C-34.96 16.39 -36.96 17.72 -39 19 C-39.99 19.66 -40.98 20.32 -42 21 C-42.39 21.15 -42.39 21.15 -44.38 21.94 C-47 23 -47 23 -49.69 24.69 C-50.45 25.12 -51.21 25.55 -52 26 C-52.66 25.67 -53.32 25.34 -54 25 C-40.81 15.8 -27.18 7.5 -12 2 C-11.26 1.69 -10.52 1.38 -9.76 1.07 C-6.04 -0.47 -3.85 -1.25 0 0 Z " fill="#DE6785" transform="translate(189,90)"/>
<path d="M0 0 C0.33 0.66 0.66 1.32 1 2 C1.99 2.33 2.98 2.66 4 3 C4 3.33 4 3.66 4 4 C6.97 4 9.94 4 13 4 C10.06 6.94 7.45 7.87 3.44 9 C0 10 0 10 -3 12 C-3.33 12.99 -3.66 13.98 -4 15 C-4.66 15 -5.32 15 -6 15 C-7 12 -7 12 -5.56 8.81 C-5.05 7.88 -4.53 6.96 -4 6 C-4.47 6.32 -4.47 6.32 -6.88 7.94 C-10 10 -10 10 -12 11 C-10.72 8.14 -9.47 5.98 -7 4 C-6.01 4 -5.02 4 -4 4 C-3.67 3.01 -3.34 2.02 -3 1 C-2.01 0.67 -1.02 0.34 0 0 Z " fill="#E4892E" transform="translate(329,265)"/>
<path d="M0 0 C0.33 0 0.66 0 1 0 C1.26 6.13 0.08 11.18 -1.58 17.04 C-2.48 20.38 -3 23.07 -3 26.56 C-3 30 -3 30 -4 33.45 C-5.45 38.6 -4.99 43.46 -4.78 48.77 C-4.85 49.84 -4.92 50.9 -5 52 C-5.99 52.66 -6.98 53.32 -8 54 C-8.68 35.42 -5.87 17.61 0 0 Z " fill="#DC5D80" transform="translate(71,204)"/>
<path d="M0 0 C0.9 0.02 1.81 0.05 2.74 0.07 C3.2 0.08 3.2 0.08 5.5 0.12 C6.2 0.15 6.9 0.17 7.62 0.2 C6.96 2.51 6.3 4.82 5.62 7.2 C4.63 7.2 3.64 7.2 2.62 7.2 C0.43 9.7 0.43 9.7 -1.38 12.2 C-0.83 12.05 -0.27 11.91 0.3 11.76 C2.73 11.17 5.17 10.67 7.62 10.2 C7.62 11.86 7.62 13.53 7.62 15.2 C5.64 15.86 3.66 16.52 1.62 17.2 C1.62 16.54 1.62 15.88 1.62 15.2 C-0.03 15.53 -1.68 15.86 -3.38 16.2 C-3.62 12.11 -2.81 9.02 -1.38 5.2 C-1.71 5.36 -1.71 5.36 -3.38 6.2 C-4.01 4.32 -4.01 4.32 -4.38 2.2 C-2.38 0.2 -2.38 0.2 0 0 Z " fill="#C8ADCB" transform="translate(125.3828125,613.8046875)"/>
<path d="M0 0 C3.03 2.68 4.99 5.96 7.06 9.38 C7.75 10.5 8.45 11.62 9.16 12.77 C10.71 15.49 11.94 18.07 13 21 C11.02 20.01 9.04 19.02 7 18 C7.33 16.35 7.66 14.7 8 13 C6.95 13.04 5.9 13.08 4.81 13.12 C1.21 13.01 -0.95 12.88 -4 11 C-4.81 8.38 -4.81 8.38 -5 6 C-3.35 5.34 -1.7 4.68 0 4 C0 2.68 0 1.36 0 0 Z " fill="#9A3A72" transform="translate(384,155)"/>
<path d="M0 0 C0.99 0 1.98 0 3 0 C3.99 2.97 4.98 5.94 6 9 C6.66 9 7.32 9 8 9 C8 6.03 8 3.06 8 0 C12 2 12 2 13.25 4.62 C13.5 5.41 13.75 6.19 14 7 C14.66 7 15.32 7 16 7 C16 7.66 16 8.32 16 9 C13.01 8 12.05 7.25 10 5 C10.33 6.98 10.66 8.96 11 11 C8.36 11 5.72 11 3 11 C3 10.01 3 9.02 3 8 C1.68 8 0.36 8 -1 8 C-1 8.99 -1 9.98 -1 11 C-1.99 11 -2.98 11 -4 11 C-2.79 7.28 -1.49 3.62 0 0 Z " fill="#9E72B2" transform="translate(388,628)"/>
<path d="M0 0 C0.9 0 1.8 0.01 2.73 0.01 C3.75 0.01 4.77 0.01 5.83 0.01 C6.38 0.02 6.38 0.02 9.17 0.05 C10.3 0.05 11.43 0.05 12.6 0.05 C16.21 0.06 19.83 0.09 23.45 0.12 C25.9 0.13 28.34 0.13 30.79 0.14 C36.8 0.16 42.81 0.2 48.82 0.24 C48.82 0.57 48.82 0.9 48.82 1.24 C48.21 1.25 47.6 1.26 46.97 1.27 C40.63 1.38 34.29 1.49 27.94 1.61 C25.57 1.66 23.2 1.7 20.83 1.74 C17.44 1.8 14.04 1.86 10.64 1.92 C9.57 1.94 8.51 1.96 7.41 1.97 C6.43 1.99 5.45 2.01 4.43 2.04 C3.57 2.05 2.7 2.07 1.8 2.08 C-0.18 2.24 -0.18 2.24 -1.18 3.24 C-1.26 4.77 -1.28 6.3 -1.27 7.83 C-1.27 8.76 -1.27 9.69 -1.26 10.65 C-1.26 11.63 -1.25 12.61 -1.24 13.62 C-1.23 14.59 -1.23 15.56 -1.23 16.56 C-1.22 18.37 -1.21 20.18 -1.19 21.99 C-1.18 23.74 -1.18 25.49 -1.18 27.24 C-3.31 25.53 -4.11 24.66 -4.55 21.91 C-4.55 21.02 -4.54 20.13 -4.54 19.21 C-4.54 18.23 -4.54 17.26 -4.54 16.25 C-4.52 15.24 -4.51 14.22 -4.49 13.18 C-4.49 12.16 -4.5 11.14 -4.5 10.09 C-4.43 0.49 -4.43 0.49 0 0 Z " fill="#6E2D96" transform="translate(67.17666625976563,611.7594909667969)"/>
<path d="M0 0 C1.32 0 2.64 0 4 0 C4.66 1.65 5.32 3.3 6 5 C6.33 3.35 6.66 1.7 7 0 C7.99 0 8.98 0 10 0 C10 4.29 10 8.58 10 13 C6 12 6 12 4 9 C3.67 10.32 3.34 11.64 3 13 C2.01 13 1.02 13 0 13 C0 8.71 0 4.42 0 0 Z " fill="#9565AD" transform="translate(120,487)"/>
<path d="M0 0 C2.38 0.81 2.38 0.81 3.38 2.81 C3.73 9.28 3.73 9.28 1.38 12.81 C-1 12.5 -1 12.5 -3.62 11.81 C-5.94 8.34 -6.05 6.89 -5.62 2.81 C-3.93 0.04 -3.26 -0.23 0 0 Z " fill="#F5EEE5" transform="translate(101.625,456.1875)"/>
<path d="M0 0 C6.8 4.89 6.8 4.89 7.56 9.12 C6.63 13.91 6.63 13.91 5 16 C2.38 16.75 2.38 16.75 0 17 C0.99 14.69 1.98 12.38 3 10 C1.02 10 -0.96 10 -3 10 C-3 9.34 -3 8.68 -3 8 C-3.66 7.67 -4.32 7.34 -5 7 C-4.01 7 -3.02 7 -2 7 C-1.86 6.03 -1.71 5.06 -1.56 4.06 C-1 1 -1 1 0 0 Z " fill="#DA7F35" transform="translate(410,260)"/>
<path d="M0 0 C0.7 0 1.4 0.01 2.13 0.01 C3.86 0.03 5.58 0.04 7.31 0.06 C6.22 1.55 6.22 1.55 4.31 3.06 C1.25 3.32 1.25 3.32 -2.25 3.19 C-8.52 2.98 -8.52 2.98 -10.69 4.06 C-11.14 4.05 -11.14 4.05 -13.44 4 C-16.69 4.06 -16.69 4.06 -19.44 5 C-23.75 6.41 -28.14 7.16 -32.69 7.06 C-33.68 6.4 -34.67 5.74 -35.69 5.06 C-30.27 3.33 -25.09 2.53 -19.44 2 C-17.85 1.85 -16.26 1.69 -14.67 1.53 C-13.98 1.46 -13.28 1.4 -12.57 1.33 C-2.9 -0.04 -2.9 -0.04 0 0 Z " fill="#D65B80" transform="translate(231.6875,80.9375)"/>
<path d="M0 0 C2.33 -0.04 4.67 -0.04 7 0 C8.89 1.89 8.18 4.57 8.23 7.09 C8 9 8 9 6 11 C2.88 11.12 2.88 11.12 0 11 C0 7.37 0 3.74 0 0 Z " fill="#AB84B9" transform="translate(342,612)"/>
<path d="M0 0 C1.07 3.2 1.07 5.66 1 9 C0.2 8.81 -0.61 8.63 -1.44 8.44 C-2.28 8.29 -3.13 8.15 -4 8 C-4.33 8.33 -4.66 8.66 -5 9 C-6.67 9.04 -8.33 9.04 -10 9 C-10.12 3.25 -10.12 3.25 -9 1 C-5.98 0.45 -3.07 0 0 0 Z " fill="#B28FBE" transform="translate(170,621)"/>
<path d="M0 0 C5.57 0.57 5.57 0.57 7 2 C7.19 4.94 7.19 4.94 7 8 C5 10 5 10 2.5 10.25 C0 10 0 10 -2 8 C-2.25 5 -2.25 5 -2 2 C-1.34 1.34 -0.68 0.68 0 0 Z " fill="#AE89BC" transform="translate(151,620)"/>
<path d="M0 0 C1.88 0.12 1.88 0.12 4 1 C5.25 4.06 5.25 4.06 6 7 C7.32 6.34 8.64 5.68 10 5 C13 8.75 13 8.75 13 11 C11.68 11.33 10.36 11.66 9 12 C8.67 11.01 8.34 10.02 8 9 C6.89 9.35 5.77 9.7 4.62 10.06 C1 11 1 11 -1 10 C-0.34 8.02 0.32 6.04 1 4 C0.34 4 -0.32 4 -1 4 C-0.67 2.68 -0.34 1.36 0 0 Z " fill="#CC4161" transform="translate(252,132)"/>
<path d="M0 0 C2.64 0 5.28 0 8 0 C8 1.32 8 2.64 8 4 C8.99 4 9.98 4 11 4 C11 3.01 11 2.02 11 1 C11.99 1.33 12.98 1.66 14 2 C13.5 2.54 13.01 3.07 12.5 3.62 C10.63 6.59 10.76 8.55 11 12 C9.68 12 8.36 12 7 12 C7.08 11.09 7.17 10.18 7.25 9.25 C7 6 7 6 5 3.62 C4.34 3.09 3.68 2.55 3 2 C3 5.3 3 8.6 3 12 C2.34 12 1.68 12 1 12 C1.33 10.68 1.66 9.36 2 8 C1.34 8 0.68 8 0 8 C-0.33 7.01 -0.66 6.02 -1 5 C-0.34 5 0.32 5 1 5 C0.67 3.35 0.34 1.7 0 0 Z " fill="#A57CB6" transform="translate(402,627)"/>
<path d="M0 0 C1.32 0 2.64 0 4 0 C4.5 1.79 5 3.58 5.5 5.38 C5.78 6.37 6.06 7.37 6.34 8.4 C7 11 7 11 7 13 C6.01 12.67 5.02 12.34 4 12 C4 11.34 4 10.68 4 10 C2.35 10 0.7 10 -1 10 C-1 10.99 -1 11.98 -1 13 C-1.66 13 -2.32 13 -3 13 C-2.69 11.58 -2.38 10.17 -2.06 8.75 C-1.89 7.96 -1.71 7.17 -1.54 6.36 C-1.05 4.23 -0.54 2.11 0 0 Z " fill="#905DAA" transform="translate(67,487)"/>
<path d="M0 0 C2.64 0 5.28 0 8 0 C8 3.63 8 7.26 8 11 C7.01 10.67 6.02 10.34 5 10 C5 8.68 5 7.36 5 6 C4.34 6 3.68 6 3 6 C3 7.65 3 9.3 3 11 C2.01 11 1.02 11 0 11 C0 7.37 0 3.74 0 0 Z " fill="#A77EB7" transform="translate(352,612)"/>
<path d="M0 0 C3 -0.31 3 -0.31 6 0 C8 2 8 2 8 5 C7.34 5 6.68 5 6 5 C5.67 4.34 5.34 3.68 5 3 C3.68 3 2.36 3 1 3 C1 5.64 1 8.28 1 11 C2.65 11 4.3 11 6 11 C6 10.01 6 9.02 6 8 C5.01 8 4.02 8 3 8 C3 7.34 3 6.68 3 6 C4.65 6 6.3 6 8 6 C8 8.31 8 10.62 8 13 C1.65 13.36 1.65 13.36 -0.94 11.94 C-2.6 8.91 -2.3 6.38 -2 3 C-1.34 2.01 -0.68 1.02 0 0 Z " fill="#8B56A7" transform="translate(178,487)"/>
<path d="M0 0 C-0.99 0.33 -1.98 0.66 -3 1 C-4.34 2.66 -5.67 4.33 -7 6 C-7.66 6 -8.32 6 -9 6 C-10.59 7.45 -12.13 8.96 -13.62 10.5 C-14.44 11.34 -15.26 12.17 -16.1 13.03 C-16.73 13.68 -17.35 14.33 -18 15 C-18.33 13.68 -18.66 12.36 -19 11 C-15.25 8 -15.25 8 -13 8 C-13 6.35 -13 4.7 -13 3 C-12.34 3 -11.68 3 -11 3 C-10.77 2.36 -10.55 1.72 -10.31 1.06 C-9 -1 -9 -1 -6.62 -1.88 C-3.74 -2.01 -2.42 -1.52 0 0 Z " fill="#E98C2E" transform="translate(311,292)"/>
<path d="M0 0 C2.31 0 4.62 0 7 0 C7.66 1.32 8.32 2.64 9 4 C8.01 4 7.02 4 6 4 C6 3.34 6 2.68 6 2 C4.35 2 2.7 2 1 2 C1 2.99 1 3.98 1 5 C1.78 4.96 2.57 4.92 3.38 4.88 C6 5 6 5 8 7 C8.19 9.56 8.19 9.56 8 12 C7 13 7 13 3.44 13.06 C2.3 13.04 1.17 13.02 0 13 C-0.33 11.68 -0.66 10.36 -1 9 C-0.34 9 0.32 9 1 9 C1 9.66 1 10.32 1 11 C2.65 11 4.3 11 6 11 C6 10.01 6 9.02 6 8 C5.22 7.88 4.43 7.75 3.62 7.62 C1 7 1 7 -1 5 C-0.62 2.38 -0.62 2.38 0 0 Z " fill="#8C58A7" transform="translate(200,487)"/>
<path d="M0 0 C4.71 0.71 4.71 0.71 6 2 C6.24 7.53 6.24 7.53 5 10 C2.62 10.12 2.62 10.12 0 10 C-0.66 9.34 -1.32 8.68 -2 8 C-1.42 1.42 -1.42 1.42 0 0 Z " fill="#AB85B9" transform="translate(208,620)"/>
<path d="M0 0 C0.66 0.33 1.32 0.66 2 1 C-0.24 5.16 -3.05 8.27 -6.44 11.5 C-9.2 14.18 -11.8 16.74 -14.16 19.78 C-16 22 -16 22 -19 23 C-17.42 19.26 -15.07 16.7 -12.31 13.75 C-8.13 9.23 -4.03 4.66 0 0 Z " fill="#DD647D" transform="translate(117,130)"/>
</svg>
