<?xml version="1.0" encoding="iso-8859-1"?>
<svg height="24px" width="24px" viewBox="0 0 24 24" version="1.1" xmlns="http://www.w3.org/2000/svg" xmlns:xlink="http://www.w3.org/1999/xlink" xml:space="preserve">
<g>
	<g>
		<path transform="scale(0.045)" d="M399.924,458.005C301.459,441.035,229.992,356.08,229.992,256S301.459,70.965,399.924,53.995
			c4.218-0.727,7.534-4.011,8.302-8.223s-1.176-8.453-4.866-10.622C364.227,12.155,319.443,0,273.849,0
			C205.468,0,141.181,26.628,92.83,74.982C44.477,123.333,17.849,187.619,17.849,256S44.477,388.667,92.83,437.019
			C141.181,485.372,205.468,512,273.849,512c45.594,0,90.378-12.155,129.51-35.151c3.69-2.169,5.634-6.411,4.866-10.622
			S404.142,458.732,399.924,458.005z M273.849,491.602c-129.911,0-235.602-105.69-235.602-235.602S143.937,20.398,273.849,20.398
			c32.902,0,65.338,6.873,95.167,20.039c-40.885,12.529-77.747,36.647-105.786,69.61C228.643,150.71,209.594,202.543,209.594,256
			s19.049,105.29,53.636,145.953c28.039,32.963,64.902,57.081,105.786,69.61C339.187,484.728,306.75,491.602,273.849,491.602z"/>
	</g>
</g>
<g>
	<g>
		<path transform="scale(0.045)" d="M77.402,268.615c-0.264-4.17-0.398-8.415-0.398-12.615c0-5.632-4.567-10.199-10.199-10.199
			c-5.632,0-10.199,4.567-10.199,10.199c0,4.627,0.148,9.305,0.438,13.903c0.342,5.403,4.829,9.556,10.17,9.556
			c0.216,0,0.434-0.007,0.654-0.02C73.487,279.083,77.756,274.238,77.402,268.615z"/>
	</g>
</g>
<g>
	<g>
		<path transform="scale(0.045)" d="M163.315,418.906c-32.255-21.931-57.072-52.536-71.769-88.507c-2.13-5.214-8.08-7.714-13.299-5.584
			c-5.214,2.131-7.714,8.085-5.584,13.299c16.218,39.696,43.599,73.466,79.182,97.66c1.756,1.194,3.751,1.766,5.726,1.766
			c3.263,0,6.47-1.564,8.443-4.465C169.181,428.417,167.972,422.073,163.315,418.906z"/>
	</g>
</g>
<g>
	<g>
        <path transform="translate(12, 5)" fill="none" stroke="#000000" d="M7.4 11.2L7.4 11.2C7.50137 11.5041 7.55206 11.6562 7.60276 11.7225C7.80288 11.9843 8.19712 11.9843 8.39724 11.7225C8.44794 11.6562 8.49863 11.5041 8.6 11.2L8.6 11.2C8.68177 10.9547 8.72266 10.832 8.77555 10.721C8.97291 10.3067 9.30672 9.97291 9.72099 9.77555C9.83201 9.72266 9.95468 9.68177 10.2 9.6L10.2 9.6C10.5041 9.49863 10.6562 9.44794 10.7225 9.39724C10.9843 9.19712 10.9843 8.80288 10.7225 8.60276C10.6562 8.55206 10.5041 8.50137 10.2 8.4L10.2 8.4C9.95468 8.31822 9.83201 8.27734 9.72099 8.22445C9.30672 8.02709 8.97291 7.69329 8.77555 7.27901C8.72266 7.16799 8.68177 7.04532 8.6 6.8C8.49863 6.49588 8.44794 6.34382 8.39724 6.2775C8.19712 6.01569 7.80288 6.01569 7.60276 6.2775C7.55206 6.34382 7.50137 6.49588 7.4 6.8C7.31823 7.04532 7.27734 7.16799 7.22445 7.27901C7.02709 7.69329 6.69329 8.02709 6.27901 8.22445C6.16799 8.27734 6.04532 8.31823 5.8 8.4C5.49588 8.50137 5.34382 8.55206 5.2775 8.60276C5.01569 8.80288 5.01569 9.19712 5.2775 9.39724C5.34382 9.44794 5.49588 9.49863 5.8 9.6C6.04532 9.68177 6.16799 9.72266 6.27901 9.77555C6.69329 9.97291 7.02709 10.3067 7.22445 10.721C7.27734 10.832 7.31822 10.9547 7.4 11.2Z" />
	</g>
</g>
<g>
	<g>
        <path transform="translate(12, 0.9) scale(0.7)" fill="none" stroke="#000000" d="M7.4 11.2L7.4 11.2C7.50137 11.5041 7.55206 11.6562 7.60276 11.7225C7.80288 11.9843 8.19712 11.9843 8.39724 11.7225C8.44794 11.6562 8.49863 11.5041 8.6 11.2L8.6 11.2C8.68177 10.9547 8.72266 10.832 8.77555 10.721C8.97291 10.3067 9.30672 9.97291 9.72099 9.77555C9.83201 9.72266 9.95468 9.68177 10.2 9.6L10.2 9.6C10.5041 9.49863 10.6562 9.44794 10.7225 9.39724C10.9843 9.19712 10.9843 8.80288 10.7225 8.60276C10.6562 8.55206 10.5041 8.50137 10.2 8.4L10.2 8.4C9.95468 8.31822 9.83201 8.27734 9.72099 8.22445C9.30672 8.02709 8.97291 7.69329 8.77555 7.27901C8.72266 7.16799 8.68177 7.04532 8.6 6.8C8.49863 6.49588 8.44794 6.34382 8.39724 6.2775C8.19712 6.01569 7.80288 6.01569 7.60276 6.2775C7.55206 6.34382 7.50137 6.49588 7.4 6.8C7.31823 7.04532 7.27734 7.16799 7.22445 7.27901C7.02709 7.69329 6.69329 8.02709 6.27901 8.22445C6.16799 8.27734 6.04532 8.31823 5.8 8.4C5.49588 8.50137 5.34382 8.55206 5.2775 8.60276C5.01569 8.80288 5.01569 9.19712 5.2775 9.39724C5.34382 9.44794 5.49588 9.49863 5.8 9.6C6.04532 9.68177 6.16799 9.72266 6.27901 9.77555C6.69329 9.97291 7.02709 10.3067 7.22445 10.721C7.27734 10.832 7.31822 10.9547 7.4 11.2Z" />
	</g>
</g>
<g>
	<g>
        <path transform="translate(10, 6) scale(0.5)" fill="none" stroke="#000000" d="M7.4 11.2L7.4 11.2C7.50137 11.5041 7.55206 11.6562 7.60276 11.7225C7.80288 11.9843 8.19712 11.9843 8.39724 11.7225C8.44794 11.6562 8.49863 11.5041 8.6 11.2L8.6 11.2C8.68177 10.9547 8.72266 10.832 8.77555 10.721C8.97291 10.3067 9.30672 9.97291 9.72099 9.77555C9.83201 9.72266 9.95468 9.68177 10.2 9.6L10.2 9.6C10.5041 9.49863 10.6562 9.44794 10.7225 9.39724C10.9843 9.19712 10.9843 8.80288 10.7225 8.60276C10.6562 8.55206 10.5041 8.50137 10.2 8.4L10.2 8.4C9.95468 8.31822 9.83201 8.27734 9.72099 8.22445C9.30672 8.02709 8.97291 7.69329 8.77555 7.27901C8.72266 7.16799 8.68177 7.04532 8.6 6.8C8.49863 6.49588 8.44794 6.34382 8.39724 6.2775C8.19712 6.01569 7.80288 6.01569 7.60276 6.2775C7.55206 6.34382 7.50137 6.49588 7.4 6.8C7.31823 7.04532 7.27734 7.16799 7.22445 7.27901C7.02709 7.69329 6.69329 8.02709 6.27901 8.22445C6.16799 8.27734 6.04532 8.31823 5.8 8.4C5.49588 8.50137 5.34382 8.55206 5.2775 8.60276C5.01569 8.80288 5.01569 9.19712 5.2775 9.39724C5.34382 9.44794 5.49588 9.49863 5.8 9.6C6.04532 9.68177 6.16799 9.72266 6.27901 9.77555C6.69329 9.97291 7.02709 10.3067 7.22445 10.721C7.27734 10.832 7.31822 10.9547 7.4 11.2Z" />
	</g>
</g>
</svg>